<?xml version="1.0" encoding="utf-8" standalone="no"?>
<!DOCTYPE svg PUBLIC "-//W3C//DTD SVG 1.1//EN"
  "http://www.w3.org/Graphics/SVG/1.1/DTD/svg11.dtd">
<svg xmlns:xlink="http://www.w3.org/1999/xlink" width="795.150729pt" height="720pt" viewBox="0 0 795.150729 720" xmlns="http://www.w3.org/2000/svg" version="1.1">
 <metadata>
  <rdf:RDF xmlns:dc="http://purl.org/dc/elements/1.1/" xmlns:cc="http://creativecommons.org/ns#" xmlns:rdf="http://www.w3.org/1999/02/22-rdf-syntax-ns#">
   <cc:Work>
    <dc:type rdf:resource="http://purl.org/dc/dcmitype/StillImage"/>
    <dc:date>2025-03-01T20:22:07.792089</dc:date>
    <dc:format>image/svg+xml</dc:format>
    <dc:creator>
     <cc:Agent>
      <dc:title>Matplotlib v3.10.1, https://matplotlib.org/</dc:title>
     </cc:Agent>
    </dc:creator>
   </cc:Work>
  </rdf:RDF>
 </metadata>
 <defs>
  <style type="text/css">*{stroke-linejoin: round; stroke-linecap: butt}</style>
 </defs>
 <g id="figure_1">
  <g id="patch_1">
   <path d="M 0 720 
L 795.150729 720 
L 795.150729 0 
L 0 0 
z
" style="fill: #ffffff"/>
  </g>
  <g id="axes_1">
   <g id="patch_2">
    <path d="M 397.575365 640.8 
L 715.635656 640.8 
L 715.635656 86.4 
L 397.575365 86.4 
z
" style="fill: #ffffff"/>
   </g>
   <g id="QuadMesh_1">
    <path d="M 397.575365 86.4 
L 556.605511 86.4 
L 556.605511 108.576 
L 397.575365 108.576 
L 397.575365 86.4 
" clip-path="url(#p300e48a3c7)" style="fill: #ffffff; stroke: #333333; stroke-width: 0.5"/>
    <path d="M 556.605511 86.4 
L 715.635656 86.4 
L 715.635656 108.576 
L 556.605511 108.576 
L 556.605511 86.4 
" clip-path="url(#p300e48a3c7)" style="fill: #ff006d; stroke: #333333; stroke-width: 0.5"/>
    <path d="M 397.575365 108.576 
L 556.605511 108.576 
L 556.605511 130.752 
L 397.575365 130.752 
L 397.575365 108.576 
" clip-path="url(#p300e48a3c7)" style="fill: #ff3f91; stroke: #333333; stroke-width: 0.5"/>
    <path d="M 556.605511 108.576 
L 715.635656 108.576 
L 715.635656 130.752 
L 556.605511 130.752 
L 556.605511 108.576 
" clip-path="url(#p300e48a3c7)" style="fill: #ffbfda; stroke: #333333; stroke-width: 0.5"/>
    <path d="M 397.575365 130.752 
L 556.605511 130.752 
L 556.605511 152.928 
L 397.575365 152.928 
L 397.575365 130.752 
" clip-path="url(#p300e48a3c7)" style="fill: #ff006d; stroke: #333333; stroke-width: 0.5"/>
    <path d="M 556.605511 130.752 
L 715.635656 130.752 
L 715.635656 152.928 
L 556.605511 152.928 
L 556.605511 130.752 
" clip-path="url(#p300e48a3c7)" style="fill: #ffffff; stroke: #333333; stroke-width: 0.5"/>
    <path d="M 397.575365 152.928 
L 556.605511 152.928 
L 556.605511 175.104 
L 397.575365 175.104 
L 397.575365 152.928 
" clip-path="url(#p300e48a3c7)" style="fill: #ff549d; stroke: #333333; stroke-width: 0.5"/>
    <path d="M 556.605511 152.928 
L 715.635656 152.928 
L 715.635656 175.104 
L 556.605511 175.104 
L 556.605511 152.928 
" clip-path="url(#p300e48a3c7)" style="fill: #ffabcf; stroke: #333333; stroke-width: 0.5"/>
    <path d="M 397.575365 175.104 
L 556.605511 175.104 
L 556.605511 197.28 
L 397.575365 197.28 
L 397.575365 175.104 
" clip-path="url(#p300e48a3c7)" style="fill: #ff006d; stroke: #333333; stroke-width: 0.5"/>
    <path d="M 556.605511 175.104 
L 715.635656 175.104 
L 715.635656 197.28 
L 556.605511 197.28 
L 556.605511 175.104 
" clip-path="url(#p300e48a3c7)" style="fill: #ffffff; stroke: #333333; stroke-width: 0.5"/>
    <path d="M 397.575365 197.28 
L 556.605511 197.28 
L 556.605511 219.456 
L 397.575365 219.456 
L 397.575365 197.28 
" clip-path="url(#p300e48a3c7)" style="fill: #ff5ea3; stroke: #333333; stroke-width: 0.5"/>
    <path d="M 556.605511 197.28 
L 715.635656 197.28 
L 715.635656 219.456 
L 556.605511 219.456 
L 556.605511 197.28 
" clip-path="url(#p300e48a3c7)" style="fill: #ffa1c9; stroke: #333333; stroke-width: 0.5"/>
    <path d="M 397.575365 219.456 
L 556.605511 219.456 
L 556.605511 241.632 
L 397.575365 241.632 
L 397.575365 219.456 
" clip-path="url(#p300e48a3c7)" style="fill: #ff2280; stroke: #333333; stroke-width: 0.5"/>
    <path d="M 556.605511 219.456 
L 715.635656 219.456 
L 715.635656 241.632 
L 556.605511 241.632 
L 556.605511 219.456 
" clip-path="url(#p300e48a3c7)" style="fill: #ffddec; stroke: #333333; stroke-width: 0.5"/>
    <path d="M 397.575365 241.632 
L 556.605511 241.632 
L 556.605511 263.808 
L 397.575365 263.808 
L 397.575365 241.632 
" clip-path="url(#p300e48a3c7)" style="fill: #ff2783; stroke: #333333; stroke-width: 0.5"/>
    <path d="M 556.605511 241.632 
L 715.635656 241.632 
L 715.635656 263.808 
L 556.605511 263.808 
L 556.605511 241.632 
" clip-path="url(#p300e48a3c7)" style="fill: #ffd8e9; stroke: #333333; stroke-width: 0.5"/>
    <path d="M 397.575365 263.808 
L 556.605511 263.808 
L 556.605511 285.984 
L 397.575365 285.984 
L 397.575365 263.808 
" clip-path="url(#p300e48a3c7)" style="fill: #ff348b; stroke: #333333; stroke-width: 0.5"/>
    <path d="M 556.605511 263.808 
L 715.635656 263.808 
L 715.635656 285.984 
L 556.605511 285.984 
L 556.605511 263.808 
" clip-path="url(#p300e48a3c7)" style="fill: #ffcbe1; stroke: #333333; stroke-width: 0.5"/>
    <path d="M 397.575365 285.984 
L 556.605511 285.984 
L 556.605511 308.16 
L 397.575365 308.16 
L 397.575365 285.984 
" clip-path="url(#p300e48a3c7)" style="fill: #ff6aaa; stroke: #333333; stroke-width: 0.5"/>
    <path d="M 556.605511 285.984 
L 715.635656 285.984 
L 715.635656 308.16 
L 556.605511 308.16 
L 556.605511 285.984 
" clip-path="url(#p300e48a3c7)" style="fill: #ff95c2; stroke: #333333; stroke-width: 0.5"/>
    <path d="M 397.575365 308.16 
L 556.605511 308.16 
L 556.605511 330.336 
L 397.575365 330.336 
L 397.575365 308.16 
" clip-path="url(#p300e48a3c7)" style="fill: #ff59a0; stroke: #333333; stroke-width: 0.5"/>
    <path d="M 556.605511 308.16 
L 715.635656 308.16 
L 715.635656 330.336 
L 556.605511 330.336 
L 556.605511 308.16 
" clip-path="url(#p300e48a3c7)" style="fill: #ffa6cc; stroke: #333333; stroke-width: 0.5"/>
    <path d="M 397.575365 330.336 
L 556.605511 330.336 
L 556.605511 352.512 
L 397.575365 352.512 
L 397.575365 330.336 
" clip-path="url(#p300e48a3c7)" style="fill: #ff197b; stroke: #333333; stroke-width: 0.5"/>
    <path d="M 556.605511 330.336 
L 715.635656 330.336 
L 715.635656 352.512 
L 556.605511 352.512 
L 556.605511 330.336 
" clip-path="url(#p300e48a3c7)" style="fill: #ffe6f1; stroke: #333333; stroke-width: 0.5"/>
    <path d="M 397.575365 352.512 
L 556.605511 352.512 
L 556.605511 374.688 
L 397.575365 374.688 
L 397.575365 352.512 
" clip-path="url(#p300e48a3c7)" style="fill: #ff4695; stroke: #333333; stroke-width: 0.5"/>
    <path d="M 556.605511 352.512 
L 715.635656 352.512 
L 715.635656 374.688 
L 556.605511 374.688 
L 556.605511 352.512 
" clip-path="url(#p300e48a3c7)" style="fill: #ffb9d7; stroke: #333333; stroke-width: 0.5"/>
    <path d="M 397.575365 374.688 
L 556.605511 374.688 
L 556.605511 396.864 
L 397.575365 396.864 
L 397.575365 374.688 
" clip-path="url(#p300e48a3c7)" style="fill: #ff4092; stroke: #333333; stroke-width: 0.5"/>
    <path d="M 556.605511 374.688 
L 715.635656 374.688 
L 715.635656 396.864 
L 556.605511 396.864 
L 556.605511 374.688 
" clip-path="url(#p300e48a3c7)" style="fill: #ffbfda; stroke: #333333; stroke-width: 0.5"/>
    <path d="M 397.575365 396.864 
L 556.605511 396.864 
L 556.605511 419.04 
L 397.575365 419.04 
L 397.575365 396.864 
" clip-path="url(#p300e48a3c7)" style="fill: #ff2683; stroke: #333333; stroke-width: 0.5"/>
    <path d="M 556.605511 396.864 
L 715.635656 396.864 
L 715.635656 419.04 
L 556.605511 419.04 
L 556.605511 396.864 
" clip-path="url(#p300e48a3c7)" style="fill: #ffd9e9; stroke: #333333; stroke-width: 0.5"/>
    <path d="M 397.575365 419.04 
L 556.605511 419.04 
L 556.605511 441.216 
L 397.575365 441.216 
L 397.575365 419.04 
" clip-path="url(#p300e48a3c7)" style="fill: #ff0a73; stroke: #333333; stroke-width: 0.5"/>
    <path d="M 556.605511 419.04 
L 715.635656 419.04 
L 715.635656 441.216 
L 556.605511 441.216 
L 556.605511 419.04 
" clip-path="url(#p300e48a3c7)" style="fill: #fff5f9; stroke: #333333; stroke-width: 0.5"/>
    <path d="M 397.575365 441.216 
L 556.605511 441.216 
L 556.605511 463.392 
L 397.575365 463.392 
L 397.575365 441.216 
" clip-path="url(#p300e48a3c7)" style="fill: #ff2e87; stroke: #333333; stroke-width: 0.5"/>
    <path d="M 556.605511 441.216 
L 715.635656 441.216 
L 715.635656 463.392 
L 556.605511 463.392 
L 556.605511 441.216 
" clip-path="url(#p300e48a3c7)" style="fill: #ffd1e5; stroke: #333333; stroke-width: 0.5"/>
    <path d="M 397.575365 463.392 
L 556.605511 463.392 
L 556.605511 485.568 
L 397.575365 485.568 
L 397.575365 463.392 
" clip-path="url(#p300e48a3c7)" style="fill: #ff197b; stroke: #333333; stroke-width: 0.5"/>
    <path d="M 556.605511 463.392 
L 715.635656 463.392 
L 715.635656 485.568 
L 556.605511 485.568 
L 556.605511 463.392 
" clip-path="url(#p300e48a3c7)" style="fill: #ffe6f1; stroke: #333333; stroke-width: 0.5"/>
    <path d="M 397.575365 485.568 
L 556.605511 485.568 
L 556.605511 507.744 
L 397.575365 507.744 
L 397.575365 485.568 
" clip-path="url(#p300e48a3c7)" style="fill: #ff0d74; stroke: #333333; stroke-width: 0.5"/>
    <path d="M 556.605511 485.568 
L 715.635656 485.568 
L 715.635656 507.744 
L 556.605511 507.744 
L 556.605511 485.568 
" clip-path="url(#p300e48a3c7)" style="fill: #fff2f8; stroke: #333333; stroke-width: 0.5"/>
    <path d="M 397.575365 507.744 
L 556.605511 507.744 
L 556.605511 529.92 
L 397.575365 529.92 
L 397.575365 507.744 
" clip-path="url(#p300e48a3c7)" style="fill: #ff0f76; stroke: #333333; stroke-width: 0.5"/>
    <path d="M 556.605511 507.744 
L 715.635656 507.744 
L 715.635656 529.92 
L 556.605511 529.92 
L 556.605511 507.744 
" clip-path="url(#p300e48a3c7)" style="fill: #fff0f6; stroke: #333333; stroke-width: 0.5"/>
    <path d="M 397.575365 529.92 
L 556.605511 529.92 
L 556.605511 552.096 
L 397.575365 552.096 
L 397.575365 529.92 
" clip-path="url(#p300e48a3c7)" style="fill: #ff006d; stroke: #333333; stroke-width: 0.5"/>
    <path d="M 556.605511 529.92 
L 715.635656 529.92 
L 715.635656 552.096 
L 556.605511 552.096 
L 556.605511 529.92 
" clip-path="url(#p300e48a3c7)" style="fill: #ffffff; stroke: #333333; stroke-width: 0.5"/>
    <path d="M 397.575365 552.096 
L 556.605511 552.096 
L 556.605511 574.272 
L 397.575365 574.272 
L 397.575365 552.096 
" clip-path="url(#p300e48a3c7)" style="fill: #ff6dab; stroke: #333333; stroke-width: 0.5"/>
    <path d="M 556.605511 552.096 
L 715.635656 552.096 
L 715.635656 574.272 
L 556.605511 574.272 
L 556.605511 552.096 
" clip-path="url(#p300e48a3c7)" style="fill: #ff92c1; stroke: #333333; stroke-width: 0.5"/>
    <path d="M 397.575365 574.272 
L 556.605511 574.272 
L 556.605511 596.448 
L 397.575365 596.448 
L 397.575365 574.272 
" clip-path="url(#p300e48a3c7)" style="fill: #ffffff; stroke: #333333; stroke-width: 0.5"/>
    <path d="M 556.605511 574.272 
L 715.635656 574.272 
L 715.635656 596.448 
L 556.605511 596.448 
L 556.605511 574.272 
" clip-path="url(#p300e48a3c7)" style="fill: #ffffff; stroke: #333333; stroke-width: 0.5"/>
    <path d="M 397.575365 596.448 
L 556.605511 596.448 
L 556.605511 618.624 
L 397.575365 618.624 
L 397.575365 596.448 
" clip-path="url(#p300e48a3c7)" style="fill: #ff368c; stroke: #333333; stroke-width: 0.5"/>
    <path d="M 556.605511 596.448 
L 715.635656 596.448 
L 715.635656 618.624 
L 556.605511 618.624 
L 556.605511 596.448 
" clip-path="url(#p300e48a3c7)" style="fill: #ffc9e0; stroke: #333333; stroke-width: 0.5"/>
    <path d="M 397.575365 618.624 
L 556.605511 618.624 
L 556.605511 640.8 
L 397.575365 640.8 
L 397.575365 618.624 
" clip-path="url(#p300e48a3c7)" style="fill: #ff4595; stroke: #333333; stroke-width: 0.5"/>
    <path d="M 556.605511 618.624 
L 715.635656 618.624 
L 715.635656 640.8 
L 556.605511 640.8 
L 556.605511 618.624 
" clip-path="url(#p300e48a3c7)" style="fill: #ffbad7; stroke: #333333; stroke-width: 0.5"/>
   </g>
   <g id="matplotlib.axis_1">
    <g id="xtick_1">
     <g id="line2d_1"/>
     <g id="text_1">
      <!-- M -->
      <g transform="translate(470.124344 79.988437) scale(0.14 -0.14)">
       <defs>
        <path id="DejaVuSans-Bold-4d" d="M 588 4666 
L 2119 4666 
L 3181 2169 
L 4250 4666 
L 5778 4666 
L 5778 0 
L 4641 0 
L 4641 3413 
L 3566 897 
L 2803 897 
L 1728 3413 
L 1728 0 
L 588 0 
L 588 4666 
z
" transform="scale(0.015625)"/>
       </defs>
       <use xlink:href="#DejaVuSans-Bold-4d"/>
      </g>
     </g>
    </g>
    <g id="xtick_2">
     <g id="line2d_2"/>
     <g id="text_2">
      <!-- F -->
      <g transform="translate(631.338708 79.988437) scale(0.14 -0.14)">
       <defs>
        <path id="DejaVuSans-Bold-46" d="M 588 4666 
L 3834 4666 
L 3834 3756 
L 1791 3756 
L 1791 2888 
L 3713 2888 
L 3713 1978 
L 1791 1978 
L 1791 0 
L 588 0 
L 588 4666 
z
" transform="scale(0.015625)"/>
       </defs>
       <use xlink:href="#DejaVuSans-Bold-46"/>
      </g>
     </g>
    </g>
   </g>
   <g id="matplotlib.axis_2">
    <g id="ytick_1">
     <g id="line2d_3"/>
     <g id="text_3">
      <!-- Governo - Presidente -->
      <g transform="translate(157.575365 100.523312) scale(0.11 -0.11)">
       <defs>
        <path id="DejaVuSans-Bold-47" d="M 4781 347 
Q 4331 128 3847 18 
Q 3363 -91 2847 -91 
Q 1681 -91 1000 561 
Q 319 1213 319 2328 
Q 319 3456 1012 4103 
Q 1706 4750 2913 4750 
Q 3378 4750 3804 4662 
Q 4231 4575 4609 4403 
L 4609 3438 
Q 4219 3659 3833 3768 
Q 3447 3878 3059 3878 
Q 2341 3878 1952 3476 
Q 1563 3075 1563 2328 
Q 1563 1588 1938 1184 
Q 2313 781 3003 781 
Q 3191 781 3352 804 
Q 3513 828 3641 878 
L 3641 1784 
L 2906 1784 
L 2906 2591 
L 4781 2591 
L 4781 347 
z
" transform="scale(0.015625)"/>
        <path id="DejaVuSans-Bold-6f" d="M 2203 2784 
Q 1831 2784 1636 2517 
Q 1441 2250 1441 1747 
Q 1441 1244 1636 976 
Q 1831 709 2203 709 
Q 2569 709 2762 976 
Q 2956 1244 2956 1747 
Q 2956 2250 2762 2517 
Q 2569 2784 2203 2784 
z
M 2203 3584 
Q 3106 3584 3614 3096 
Q 4122 2609 4122 1747 
Q 4122 884 3614 396 
Q 3106 -91 2203 -91 
Q 1297 -91 786 396 
Q 275 884 275 1747 
Q 275 2609 786 3096 
Q 1297 3584 2203 3584 
z
" transform="scale(0.015625)"/>
        <path id="DejaVuSans-Bold-76" d="M 97 3500 
L 1216 3500 
L 2088 1081 
L 2956 3500 
L 4078 3500 
L 2700 0 
L 1472 0 
L 97 3500 
z
" transform="scale(0.015625)"/>
        <path id="DejaVuSans-Bold-65" d="M 4031 1759 
L 4031 1441 
L 1416 1441 
Q 1456 1047 1700 850 
Q 1944 653 2381 653 
Q 2734 653 3104 758 
Q 3475 863 3866 1075 
L 3866 213 
Q 3469 63 3072 -14 
Q 2675 -91 2278 -91 
Q 1328 -91 801 392 
Q 275 875 275 1747 
Q 275 2603 792 3093 
Q 1309 3584 2216 3584 
Q 3041 3584 3536 3087 
Q 4031 2591 4031 1759 
z
M 2881 2131 
Q 2881 2450 2695 2645 
Q 2509 2841 2209 2841 
Q 1884 2841 1681 2658 
Q 1478 2475 1428 2131 
L 2881 2131 
z
" transform="scale(0.015625)"/>
        <path id="DejaVuSans-Bold-72" d="M 3138 2547 
Q 2991 2616 2845 2648 
Q 2700 2681 2553 2681 
Q 2122 2681 1889 2404 
Q 1656 2128 1656 1613 
L 1656 0 
L 538 0 
L 538 3500 
L 1656 3500 
L 1656 2925 
Q 1872 3269 2151 3426 
Q 2431 3584 2822 3584 
Q 2878 3584 2943 3579 
Q 3009 3575 3134 3559 
L 3138 2547 
z
" transform="scale(0.015625)"/>
        <path id="DejaVuSans-Bold-6e" d="M 4056 2131 
L 4056 0 
L 2931 0 
L 2931 347 
L 2931 1631 
Q 2931 2084 2911 2256 
Q 2891 2428 2841 2509 
Q 2775 2619 2662 2680 
Q 2550 2741 2406 2741 
Q 2056 2741 1856 2470 
Q 1656 2200 1656 1722 
L 1656 0 
L 538 0 
L 538 3500 
L 1656 3500 
L 1656 2988 
Q 1909 3294 2193 3439 
Q 2478 3584 2822 3584 
Q 3428 3584 3742 3212 
Q 4056 2841 4056 2131 
z
" transform="scale(0.015625)"/>
        <path id="DejaVuSans-Bold-20" transform="scale(0.015625)"/>
        <path id="DejaVuSans-Bold-2d" d="M 347 2297 
L 2309 2297 
L 2309 1388 
L 347 1388 
L 347 2297 
z
" transform="scale(0.015625)"/>
        <path id="DejaVuSans-Bold-50" d="M 588 4666 
L 2584 4666 
Q 3475 4666 3951 4270 
Q 4428 3875 4428 3144 
Q 4428 2409 3951 2014 
Q 3475 1619 2584 1619 
L 1791 1619 
L 1791 0 
L 588 0 
L 588 4666 
z
M 1791 3794 
L 1791 2491 
L 2456 2491 
Q 2806 2491 2997 2661 
Q 3188 2831 3188 3144 
Q 3188 3456 2997 3625 
Q 2806 3794 2456 3794 
L 1791 3794 
z
" transform="scale(0.015625)"/>
        <path id="DejaVuSans-Bold-73" d="M 3272 3391 
L 3272 2541 
Q 2913 2691 2578 2766 
Q 2244 2841 1947 2841 
Q 1628 2841 1473 2761 
Q 1319 2681 1319 2516 
Q 1319 2381 1436 2309 
Q 1553 2238 1856 2203 
L 2053 2175 
Q 2913 2066 3209 1816 
Q 3506 1566 3506 1031 
Q 3506 472 3093 190 
Q 2681 -91 1863 -91 
Q 1516 -91 1145 -36 
Q 775 19 384 128 
L 384 978 
Q 719 816 1070 734 
Q 1422 653 1784 653 
Q 2113 653 2278 743 
Q 2444 834 2444 1013 
Q 2444 1163 2330 1236 
Q 2216 1309 1875 1350 
L 1678 1375 
Q 931 1469 631 1722 
Q 331 1975 331 2491 
Q 331 3047 712 3315 
Q 1094 3584 1881 3584 
Q 2191 3584 2531 3537 
Q 2872 3491 3272 3391 
z
" transform="scale(0.015625)"/>
        <path id="DejaVuSans-Bold-69" d="M 538 3500 
L 1656 3500 
L 1656 0 
L 538 0 
L 538 3500 
z
M 538 4863 
L 1656 4863 
L 1656 3950 
L 538 3950 
L 538 4863 
z
" transform="scale(0.015625)"/>
        <path id="DejaVuSans-Bold-64" d="M 2919 2988 
L 2919 4863 
L 4044 4863 
L 4044 0 
L 2919 0 
L 2919 506 
Q 2688 197 2409 53 
Q 2131 -91 1766 -91 
Q 1119 -91 703 423 
Q 288 938 288 1747 
Q 288 2556 703 3070 
Q 1119 3584 1766 3584 
Q 2128 3584 2408 3439 
Q 2688 3294 2919 2988 
z
M 2181 722 
Q 2541 722 2730 984 
Q 2919 1247 2919 1747 
Q 2919 2247 2730 2509 
Q 2541 2772 2181 2772 
Q 1825 2772 1636 2509 
Q 1447 2247 1447 1747 
Q 1447 1247 1636 984 
Q 1825 722 2181 722 
z
" transform="scale(0.015625)"/>
        <path id="DejaVuSans-Bold-74" d="M 1759 4494 
L 1759 3500 
L 2913 3500 
L 2913 2700 
L 1759 2700 
L 1759 1216 
Q 1759 972 1856 886 
Q 1953 800 2241 800 
L 2816 800 
L 2816 0 
L 1856 0 
Q 1194 0 917 276 
Q 641 553 641 1216 
L 641 2700 
L 84 2700 
L 84 3500 
L 641 3500 
L 641 4494 
L 1759 4494 
z
" transform="scale(0.015625)"/>
       </defs>
       <use xlink:href="#DejaVuSans-Bold-47"/>
       <use xlink:href="#DejaVuSans-Bold-6f" transform="translate(82.080078 0)"/>
       <use xlink:href="#DejaVuSans-Bold-76" transform="translate(150.78125 0)"/>
       <use xlink:href="#DejaVuSans-Bold-65" transform="translate(215.966797 0)"/>
       <use xlink:href="#DejaVuSans-Bold-72" transform="translate(283.789062 0)"/>
       <use xlink:href="#DejaVuSans-Bold-6e" transform="translate(333.105469 0)"/>
       <use xlink:href="#DejaVuSans-Bold-6f" transform="translate(404.296875 0)"/>
       <use xlink:href="#DejaVuSans-Bold-20" transform="translate(472.998047 0)"/>
       <use xlink:href="#DejaVuSans-Bold-2d" transform="translate(507.8125 0)"/>
       <use xlink:href="#DejaVuSans-Bold-20" transform="translate(549.316406 0)"/>
       <use xlink:href="#DejaVuSans-Bold-50" transform="translate(584.130859 0)"/>
       <use xlink:href="#DejaVuSans-Bold-72" transform="translate(657.421875 0)"/>
       <use xlink:href="#DejaVuSans-Bold-65" transform="translate(706.738281 0)"/>
       <use xlink:href="#DejaVuSans-Bold-73" transform="translate(774.560547 0)"/>
       <use xlink:href="#DejaVuSans-Bold-69" transform="translate(834.082031 0)"/>
       <use xlink:href="#DejaVuSans-Bold-64" transform="translate(868.359375 0)"/>
       <use xlink:href="#DejaVuSans-Bold-65" transform="translate(939.941406 0)"/>
       <use xlink:href="#DejaVuSans-Bold-6e" transform="translate(1007.763672 0)"/>
       <use xlink:href="#DejaVuSans-Bold-74" transform="translate(1078.955078 0)"/>
       <use xlink:href="#DejaVuSans-Bold-65" transform="translate(1126.757812 0)"/>
      </g>
     </g>
    </g>
    <g id="ytick_2">
     <g id="line2d_4"/>
     <g id="text_4">
      <!-- Governo -->
      <g transform="translate(157.575365 122.699312) scale(0.11 -0.11)">
       <use xlink:href="#DejaVuSans-Bold-47"/>
       <use xlink:href="#DejaVuSans-Bold-6f" transform="translate(82.080078 0)"/>
       <use xlink:href="#DejaVuSans-Bold-76" transform="translate(150.78125 0)"/>
       <use xlink:href="#DejaVuSans-Bold-65" transform="translate(215.966797 0)"/>
       <use xlink:href="#DejaVuSans-Bold-72" transform="translate(283.789062 0)"/>
       <use xlink:href="#DejaVuSans-Bold-6e" transform="translate(333.105469 0)"/>
       <use xlink:href="#DejaVuSans-Bold-6f" transform="translate(404.296875 0)"/>
      </g>
     </g>
    </g>
    <g id="ytick_3">
     <g id="line2d_5"/>
     <g id="text_5">
      <!-- Camera - Presidente -->
      <g transform="translate(157.575365 144.875312) scale(0.11 -0.11)">
       <defs>
        <path id="DejaVuSans-Bold-43" d="M 4288 256 
Q 3956 84 3597 -3 
Q 3238 -91 2847 -91 
Q 1681 -91 1000 561 
Q 319 1213 319 2328 
Q 319 3447 1000 4098 
Q 1681 4750 2847 4750 
Q 3238 4750 3597 4662 
Q 3956 4575 4288 4403 
L 4288 3438 
Q 3953 3666 3628 3772 
Q 3303 3878 2944 3878 
Q 2300 3878 1931 3465 
Q 1563 3053 1563 2328 
Q 1563 1606 1931 1193 
Q 2300 781 2944 781 
Q 3303 781 3628 887 
Q 3953 994 4288 1222 
L 4288 256 
z
" transform="scale(0.015625)"/>
        <path id="DejaVuSans-Bold-61" d="M 2106 1575 
Q 1756 1575 1579 1456 
Q 1403 1338 1403 1106 
Q 1403 894 1545 773 
Q 1688 653 1941 653 
Q 2256 653 2472 879 
Q 2688 1106 2688 1447 
L 2688 1575 
L 2106 1575 
z
M 3816 1997 
L 3816 0 
L 2688 0 
L 2688 519 
Q 2463 200 2181 54 
Q 1900 -91 1497 -91 
Q 953 -91 614 226 
Q 275 544 275 1050 
Q 275 1666 698 1953 
Q 1122 2241 2028 2241 
L 2688 2241 
L 2688 2328 
Q 2688 2594 2478 2717 
Q 2269 2841 1825 2841 
Q 1466 2841 1156 2769 
Q 847 2697 581 2553 
L 581 3406 
Q 941 3494 1303 3539 
Q 1666 3584 2028 3584 
Q 2975 3584 3395 3211 
Q 3816 2838 3816 1997 
z
" transform="scale(0.015625)"/>
        <path id="DejaVuSans-Bold-6d" d="M 3781 2919 
Q 3994 3244 4286 3414 
Q 4578 3584 4928 3584 
Q 5531 3584 5847 3212 
Q 6163 2841 6163 2131 
L 6163 0 
L 5038 0 
L 5038 1825 
Q 5041 1866 5042 1909 
Q 5044 1953 5044 2034 
Q 5044 2406 4934 2573 
Q 4825 2741 4581 2741 
Q 4263 2741 4089 2478 
Q 3916 2216 3909 1719 
L 3909 0 
L 2784 0 
L 2784 1825 
Q 2784 2406 2684 2573 
Q 2584 2741 2328 2741 
Q 2006 2741 1831 2477 
Q 1656 2213 1656 1722 
L 1656 0 
L 531 0 
L 531 3500 
L 1656 3500 
L 1656 2988 
Q 1863 3284 2130 3434 
Q 2397 3584 2719 3584 
Q 3081 3584 3359 3409 
Q 3638 3234 3781 2919 
z
" transform="scale(0.015625)"/>
       </defs>
       <use xlink:href="#DejaVuSans-Bold-43"/>
       <use xlink:href="#DejaVuSans-Bold-61" transform="translate(73.388672 0)"/>
       <use xlink:href="#DejaVuSans-Bold-6d" transform="translate(140.869141 0)"/>
       <use xlink:href="#DejaVuSans-Bold-65" transform="translate(245.068359 0)"/>
       <use xlink:href="#DejaVuSans-Bold-72" transform="translate(312.890625 0)"/>
       <use xlink:href="#DejaVuSans-Bold-61" transform="translate(362.207031 0)"/>
       <use xlink:href="#DejaVuSans-Bold-20" transform="translate(429.6875 0)"/>
       <use xlink:href="#DejaVuSans-Bold-2d" transform="translate(464.501953 0)"/>
       <use xlink:href="#DejaVuSans-Bold-20" transform="translate(506.005859 0)"/>
       <use xlink:href="#DejaVuSans-Bold-50" transform="translate(540.820312 0)"/>
       <use xlink:href="#DejaVuSans-Bold-72" transform="translate(614.111328 0)"/>
       <use xlink:href="#DejaVuSans-Bold-65" transform="translate(663.427734 0)"/>
       <use xlink:href="#DejaVuSans-Bold-73" transform="translate(731.25 0)"/>
       <use xlink:href="#DejaVuSans-Bold-69" transform="translate(790.771484 0)"/>
       <use xlink:href="#DejaVuSans-Bold-64" transform="translate(825.048828 0)"/>
       <use xlink:href="#DejaVuSans-Bold-65" transform="translate(896.630859 0)"/>
       <use xlink:href="#DejaVuSans-Bold-6e" transform="translate(964.453125 0)"/>
       <use xlink:href="#DejaVuSans-Bold-74" transform="translate(1035.644531 0)"/>
       <use xlink:href="#DejaVuSans-Bold-65" transform="translate(1083.447266 0)"/>
      </g>
     </g>
    </g>
    <g id="ytick_4">
     <g id="line2d_6"/>
     <g id="text_6">
      <!-- Camera -->
      <g transform="translate(157.575365 167.051312) scale(0.11 -0.11)">
       <use xlink:href="#DejaVuSans-Bold-43"/>
       <use xlink:href="#DejaVuSans-Bold-61" transform="translate(73.388672 0)"/>
       <use xlink:href="#DejaVuSans-Bold-6d" transform="translate(140.869141 0)"/>
       <use xlink:href="#DejaVuSans-Bold-65" transform="translate(245.068359 0)"/>
       <use xlink:href="#DejaVuSans-Bold-72" transform="translate(312.890625 0)"/>
       <use xlink:href="#DejaVuSans-Bold-61" transform="translate(362.207031 0)"/>
      </g>
     </g>
    </g>
    <g id="ytick_5">
     <g id="line2d_7"/>
     <g id="text_7">
      <!-- Senato - Presidente -->
      <g transform="translate(157.575365 189.227312) scale(0.11 -0.11)">
       <defs>
        <path id="DejaVuSans-Bold-53" d="M 3834 4519 
L 3834 3531 
Q 3450 3703 3084 3790 
Q 2719 3878 2394 3878 
Q 1963 3878 1756 3759 
Q 1550 3641 1550 3391 
Q 1550 3203 1689 3098 
Q 1828 2994 2194 2919 
L 2706 2816 
Q 3484 2659 3812 2340 
Q 4141 2022 4141 1434 
Q 4141 663 3683 286 
Q 3225 -91 2284 -91 
Q 1841 -91 1394 -6 
Q 947 78 500 244 
L 500 1259 
Q 947 1022 1364 901 
Q 1781 781 2169 781 
Q 2563 781 2772 912 
Q 2981 1044 2981 1288 
Q 2981 1506 2839 1625 
Q 2697 1744 2272 1838 
L 1806 1941 
Q 1106 2091 782 2419 
Q 459 2747 459 3303 
Q 459 4000 909 4375 
Q 1359 4750 2203 4750 
Q 2588 4750 2994 4692 
Q 3400 4634 3834 4519 
z
" transform="scale(0.015625)"/>
       </defs>
       <use xlink:href="#DejaVuSans-Bold-53"/>
       <use xlink:href="#DejaVuSans-Bold-65" transform="translate(72.021484 0)"/>
       <use xlink:href="#DejaVuSans-Bold-6e" transform="translate(139.84375 0)"/>
       <use xlink:href="#DejaVuSans-Bold-61" transform="translate(211.035156 0)"/>
       <use xlink:href="#DejaVuSans-Bold-74" transform="translate(278.515625 0)"/>
       <use xlink:href="#DejaVuSans-Bold-6f" transform="translate(326.318359 0)"/>
       <use xlink:href="#DejaVuSans-Bold-20" transform="translate(395.019531 0)"/>
       <use xlink:href="#DejaVuSans-Bold-2d" transform="translate(429.833984 0)"/>
       <use xlink:href="#DejaVuSans-Bold-20" transform="translate(471.337891 0)"/>
       <use xlink:href="#DejaVuSans-Bold-50" transform="translate(506.152344 0)"/>
       <use xlink:href="#DejaVuSans-Bold-72" transform="translate(579.443359 0)"/>
       <use xlink:href="#DejaVuSans-Bold-65" transform="translate(628.759766 0)"/>
       <use xlink:href="#DejaVuSans-Bold-73" transform="translate(696.582031 0)"/>
       <use xlink:href="#DejaVuSans-Bold-69" transform="translate(756.103516 0)"/>
       <use xlink:href="#DejaVuSans-Bold-64" transform="translate(790.380859 0)"/>
       <use xlink:href="#DejaVuSans-Bold-65" transform="translate(861.962891 0)"/>
       <use xlink:href="#DejaVuSans-Bold-6e" transform="translate(929.785156 0)"/>
       <use xlink:href="#DejaVuSans-Bold-74" transform="translate(1000.976562 0)"/>
       <use xlink:href="#DejaVuSans-Bold-65" transform="translate(1048.779297 0)"/>
      </g>
     </g>
    </g>
    <g id="ytick_6">
     <g id="line2d_8"/>
     <g id="text_8">
      <!-- Senato -->
      <g transform="translate(157.575365 211.403312) scale(0.11 -0.11)">
       <use xlink:href="#DejaVuSans-Bold-53"/>
       <use xlink:href="#DejaVuSans-Bold-65" transform="translate(72.021484 0)"/>
       <use xlink:href="#DejaVuSans-Bold-6e" transform="translate(139.84375 0)"/>
       <use xlink:href="#DejaVuSans-Bold-61" transform="translate(211.035156 0)"/>
       <use xlink:href="#DejaVuSans-Bold-74" transform="translate(278.515625 0)"/>
       <use xlink:href="#DejaVuSans-Bold-6f" transform="translate(326.318359 0)"/>
      </g>
     </g>
    </g>
    <g id="ytick_7">
     <g id="line2d_9"/>
     <g id="text_9">
      <!-- Ambasciate -->
      <g transform="translate(157.575365 233.579312) scale(0.11 -0.11)">
       <defs>
        <path id="DejaVuSans-Bold-41" d="M 3419 850 
L 1538 850 
L 1241 0 
L 31 0 
L 1759 4666 
L 3194 4666 
L 4922 0 
L 3713 0 
L 3419 850 
z
M 1838 1716 
L 3116 1716 
L 2478 3572 
L 1838 1716 
z
" transform="scale(0.015625)"/>
        <path id="DejaVuSans-Bold-62" d="M 2400 722 
Q 2759 722 2948 984 
Q 3138 1247 3138 1747 
Q 3138 2247 2948 2509 
Q 2759 2772 2400 2772 
Q 2041 2772 1848 2508 
Q 1656 2244 1656 1747 
Q 1656 1250 1848 986 
Q 2041 722 2400 722 
z
M 1656 2988 
Q 1888 3294 2169 3439 
Q 2450 3584 2816 3584 
Q 3463 3584 3878 3070 
Q 4294 2556 4294 1747 
Q 4294 938 3878 423 
Q 3463 -91 2816 -91 
Q 2450 -91 2169 54 
Q 1888 200 1656 506 
L 1656 0 
L 538 0 
L 538 4863 
L 1656 4863 
L 1656 2988 
z
" transform="scale(0.015625)"/>
        <path id="DejaVuSans-Bold-63" d="M 3366 3391 
L 3366 2478 
Q 3138 2634 2908 2709 
Q 2678 2784 2431 2784 
Q 1963 2784 1702 2511 
Q 1441 2238 1441 1747 
Q 1441 1256 1702 982 
Q 1963 709 2431 709 
Q 2694 709 2930 787 
Q 3166 866 3366 1019 
L 3366 103 
Q 3103 6 2833 -42 
Q 2563 -91 2291 -91 
Q 1344 -91 809 395 
Q 275 881 275 1747 
Q 275 2613 809 3098 
Q 1344 3584 2291 3584 
Q 2566 3584 2833 3536 
Q 3100 3488 3366 3391 
z
" transform="scale(0.015625)"/>
       </defs>
       <use xlink:href="#DejaVuSans-Bold-41"/>
       <use xlink:href="#DejaVuSans-Bold-6d" transform="translate(77.392578 0)"/>
       <use xlink:href="#DejaVuSans-Bold-62" transform="translate(181.591797 0)"/>
       <use xlink:href="#DejaVuSans-Bold-61" transform="translate(253.173828 0)"/>
       <use xlink:href="#DejaVuSans-Bold-73" transform="translate(320.654297 0)"/>
       <use xlink:href="#DejaVuSans-Bold-63" transform="translate(380.175781 0)"/>
       <use xlink:href="#DejaVuSans-Bold-69" transform="translate(439.453125 0)"/>
       <use xlink:href="#DejaVuSans-Bold-61" transform="translate(473.730469 0)"/>
       <use xlink:href="#DejaVuSans-Bold-74" transform="translate(541.210938 0)"/>
       <use xlink:href="#DejaVuSans-Bold-65" transform="translate(589.013672 0)"/>
      </g>
     </g>
    </g>
    <g id="ytick_8">
     <g id="line2d_10"/>
     <g id="text_10">
      <!-- Sindaci -->
      <g transform="translate(157.575365 255.755312) scale(0.11 -0.11)">
       <use xlink:href="#DejaVuSans-Bold-53"/>
       <use xlink:href="#DejaVuSans-Bold-69" transform="translate(72.021484 0)"/>
       <use xlink:href="#DejaVuSans-Bold-6e" transform="translate(106.298828 0)"/>
       <use xlink:href="#DejaVuSans-Bold-64" transform="translate(177.490234 0)"/>
       <use xlink:href="#DejaVuSans-Bold-61" transform="translate(249.072266 0)"/>
       <use xlink:href="#DejaVuSans-Bold-63" transform="translate(316.552734 0)"/>
       <use xlink:href="#DejaVuSans-Bold-69" transform="translate(375.830078 0)"/>
      </g>
     </g>
    </g>
    <g id="ytick_9">
     <g id="line2d_11"/>
     <g id="text_11">
      <!-- Sindaci &gt;100k abitanti -->
      <g transform="translate(157.575365 277.931312) scale(0.11 -0.11)">
       <defs>
        <path id="DejaVuSans-Bold-3e" d="M 678 3041 
L 678 3822 
L 4684 2375 
L 4684 1638 
L 678 191 
L 678 972 
L 3694 2003 
L 678 3041 
z
" transform="scale(0.015625)"/>
        <path id="DejaVuSans-Bold-31" d="M 750 831 
L 1813 831 
L 1813 3847 
L 722 3622 
L 722 4441 
L 1806 4666 
L 2950 4666 
L 2950 831 
L 4013 831 
L 4013 0 
L 750 0 
L 750 831 
z
" transform="scale(0.015625)"/>
        <path id="DejaVuSans-Bold-30" d="M 2944 2338 
Q 2944 3213 2780 3570 
Q 2616 3928 2228 3928 
Q 1841 3928 1675 3570 
Q 1509 3213 1509 2338 
Q 1509 1453 1675 1090 
Q 1841 728 2228 728 
Q 2613 728 2778 1090 
Q 2944 1453 2944 2338 
z
M 4147 2328 
Q 4147 1169 3647 539 
Q 3147 -91 2228 -91 
Q 1306 -91 806 539 
Q 306 1169 306 2328 
Q 306 3491 806 4120 
Q 1306 4750 2228 4750 
Q 3147 4750 3647 4120 
Q 4147 3491 4147 2328 
z
" transform="scale(0.015625)"/>
        <path id="DejaVuSans-Bold-6b" d="M 538 4863 
L 1656 4863 
L 1656 2216 
L 2944 3500 
L 4244 3500 
L 2534 1894 
L 4378 0 
L 3022 0 
L 1656 1459 
L 1656 0 
L 538 0 
L 538 4863 
z
" transform="scale(0.015625)"/>
       </defs>
       <use xlink:href="#DejaVuSans-Bold-53"/>
       <use xlink:href="#DejaVuSans-Bold-69" transform="translate(72.021484 0)"/>
       <use xlink:href="#DejaVuSans-Bold-6e" transform="translate(106.298828 0)"/>
       <use xlink:href="#DejaVuSans-Bold-64" transform="translate(177.490234 0)"/>
       <use xlink:href="#DejaVuSans-Bold-61" transform="translate(249.072266 0)"/>
       <use xlink:href="#DejaVuSans-Bold-63" transform="translate(316.552734 0)"/>
       <use xlink:href="#DejaVuSans-Bold-69" transform="translate(375.830078 0)"/>
       <use xlink:href="#DejaVuSans-Bold-20" transform="translate(410.107422 0)"/>
       <use xlink:href="#DejaVuSans-Bold-3e" transform="translate(444.921875 0)"/>
       <use xlink:href="#DejaVuSans-Bold-31" transform="translate(528.710938 0)"/>
       <use xlink:href="#DejaVuSans-Bold-30" transform="translate(598.291016 0)"/>
       <use xlink:href="#DejaVuSans-Bold-30" transform="translate(667.871094 0)"/>
       <use xlink:href="#DejaVuSans-Bold-6b" transform="translate(737.451172 0)"/>
       <use xlink:href="#DejaVuSans-Bold-20" transform="translate(803.955078 0)"/>
       <use xlink:href="#DejaVuSans-Bold-61" transform="translate(838.769531 0)"/>
       <use xlink:href="#DejaVuSans-Bold-62" transform="translate(906.25 0)"/>
       <use xlink:href="#DejaVuSans-Bold-69" transform="translate(977.832031 0)"/>
       <use xlink:href="#DejaVuSans-Bold-74" transform="translate(1012.109375 0)"/>
       <use xlink:href="#DejaVuSans-Bold-61" transform="translate(1059.912109 0)"/>
       <use xlink:href="#DejaVuSans-Bold-6e" transform="translate(1127.392578 0)"/>
       <use xlink:href="#DejaVuSans-Bold-74" transform="translate(1198.583984 0)"/>
       <use xlink:href="#DejaVuSans-Bold-69" transform="translate(1246.386719 0)"/>
      </g>
     </g>
    </g>
    <g id="ytick_10">
     <g id="line2d_12"/>
     <g id="text_12">
      <!-- Giunta comune -->
      <g transform="translate(157.575365 300.107312) scale(0.11 -0.11)">
       <defs>
        <path id="DejaVuSans-Bold-75" d="M 500 1363 
L 500 3500 
L 1625 3500 
L 1625 3150 
Q 1625 2866 1622 2436 
Q 1619 2006 1619 1863 
Q 1619 1441 1641 1255 
Q 1663 1069 1716 984 
Q 1784 875 1895 815 
Q 2006 756 2150 756 
Q 2500 756 2700 1025 
Q 2900 1294 2900 1772 
L 2900 3500 
L 4019 3500 
L 4019 0 
L 2900 0 
L 2900 506 
Q 2647 200 2364 54 
Q 2081 -91 1741 -91 
Q 1134 -91 817 281 
Q 500 653 500 1363 
z
" transform="scale(0.015625)"/>
       </defs>
       <use xlink:href="#DejaVuSans-Bold-47"/>
       <use xlink:href="#DejaVuSans-Bold-69" transform="translate(82.080078 0)"/>
       <use xlink:href="#DejaVuSans-Bold-75" transform="translate(116.357422 0)"/>
       <use xlink:href="#DejaVuSans-Bold-6e" transform="translate(187.548828 0)"/>
       <use xlink:href="#DejaVuSans-Bold-74" transform="translate(258.740234 0)"/>
       <use xlink:href="#DejaVuSans-Bold-61" transform="translate(306.542969 0)"/>
       <use xlink:href="#DejaVuSans-Bold-20" transform="translate(374.023438 0)"/>
       <use xlink:href="#DejaVuSans-Bold-63" transform="translate(408.837891 0)"/>
       <use xlink:href="#DejaVuSans-Bold-6f" transform="translate(468.115234 0)"/>
       <use xlink:href="#DejaVuSans-Bold-6d" transform="translate(536.816406 0)"/>
       <use xlink:href="#DejaVuSans-Bold-75" transform="translate(641.015625 0)"/>
       <use xlink:href="#DejaVuSans-Bold-6e" transform="translate(712.207031 0)"/>
       <use xlink:href="#DejaVuSans-Bold-65" transform="translate(783.398438 0)"/>
      </g>
     </g>
    </g>
    <g id="ytick_11">
     <g id="line2d_13"/>
     <g id="text_13">
      <!-- Consiglio comune -->
      <g transform="translate(157.575365 322.240344) scale(0.11 -0.11)">
       <defs>
        <path id="DejaVuSans-Bold-67" d="M 2919 594 
Q 2688 288 2409 144 
Q 2131 0 1766 0 
Q 1125 0 706 504 
Q 288 1009 288 1791 
Q 288 2575 706 3076 
Q 1125 3578 1766 3578 
Q 2131 3578 2409 3434 
Q 2688 3291 2919 2981 
L 2919 3500 
L 4044 3500 
L 4044 353 
Q 4044 -491 3511 -936 
Q 2978 -1381 1966 -1381 
Q 1638 -1381 1331 -1331 
Q 1025 -1281 716 -1178 
L 716 -306 
Q 1009 -475 1290 -558 
Q 1572 -641 1856 -641 
Q 2406 -641 2662 -400 
Q 2919 -159 2919 353 
L 2919 594 
z
M 2181 2772 
Q 1834 2772 1640 2515 
Q 1447 2259 1447 1791 
Q 1447 1309 1634 1061 
Q 1822 813 2181 813 
Q 2531 813 2725 1069 
Q 2919 1325 2919 1791 
Q 2919 2259 2725 2515 
Q 2531 2772 2181 2772 
z
" transform="scale(0.015625)"/>
        <path id="DejaVuSans-Bold-6c" d="M 538 4863 
L 1656 4863 
L 1656 0 
L 538 0 
L 538 4863 
z
" transform="scale(0.015625)"/>
       </defs>
       <use xlink:href="#DejaVuSans-Bold-43"/>
       <use xlink:href="#DejaVuSans-Bold-6f" transform="translate(73.388672 0)"/>
       <use xlink:href="#DejaVuSans-Bold-6e" transform="translate(142.089844 0)"/>
       <use xlink:href="#DejaVuSans-Bold-73" transform="translate(213.28125 0)"/>
       <use xlink:href="#DejaVuSans-Bold-69" transform="translate(272.802734 0)"/>
       <use xlink:href="#DejaVuSans-Bold-67" transform="translate(307.080078 0)"/>
       <use xlink:href="#DejaVuSans-Bold-6c" transform="translate(378.662109 0)"/>
       <use xlink:href="#DejaVuSans-Bold-69" transform="translate(412.939453 0)"/>
       <use xlink:href="#DejaVuSans-Bold-6f" transform="translate(447.216797 0)"/>
       <use xlink:href="#DejaVuSans-Bold-20" transform="translate(515.917969 0)"/>
       <use xlink:href="#DejaVuSans-Bold-63" transform="translate(550.732422 0)"/>
       <use xlink:href="#DejaVuSans-Bold-6f" transform="translate(610.009766 0)"/>
       <use xlink:href="#DejaVuSans-Bold-6d" transform="translate(678.710938 0)"/>
       <use xlink:href="#DejaVuSans-Bold-75" transform="translate(782.910156 0)"/>
       <use xlink:href="#DejaVuSans-Bold-6e" transform="translate(854.101562 0)"/>
       <use xlink:href="#DejaVuSans-Bold-65" transform="translate(925.292969 0)"/>
      </g>
     </g>
    </g>
    <g id="ytick_12">
     <g id="line2d_14"/>
     <g id="text_14">
      <!-- Presidenza Regione -->
      <g transform="translate(157.575365 344.416344) scale(0.11 -0.11)">
       <defs>
        <path id="DejaVuSans-Bold-7a" d="M 366 3500 
L 3419 3500 
L 3419 2719 
L 1575 800 
L 3419 800 
L 3419 0 
L 288 0 
L 288 781 
L 2131 2700 
L 366 2700 
L 366 3500 
z
" transform="scale(0.015625)"/>
        <path id="DejaVuSans-Bold-52" d="M 2297 2597 
Q 2675 2597 2839 2737 
Q 3003 2878 3003 3200 
Q 3003 3519 2839 3656 
Q 2675 3794 2297 3794 
L 1791 3794 
L 1791 2597 
L 2297 2597 
z
M 1791 1766 
L 1791 0 
L 588 0 
L 588 4666 
L 2425 4666 
Q 3347 4666 3776 4356 
Q 4206 4047 4206 3378 
Q 4206 2916 3982 2619 
Q 3759 2322 3309 2181 
Q 3556 2125 3751 1926 
Q 3947 1728 4147 1325 
L 4800 0 
L 3519 0 
L 2950 1159 
Q 2778 1509 2601 1637 
Q 2425 1766 2131 1766 
L 1791 1766 
z
" transform="scale(0.015625)"/>
       </defs>
       <use xlink:href="#DejaVuSans-Bold-50"/>
       <use xlink:href="#DejaVuSans-Bold-72" transform="translate(73.291016 0)"/>
       <use xlink:href="#DejaVuSans-Bold-65" transform="translate(122.607422 0)"/>
       <use xlink:href="#DejaVuSans-Bold-73" transform="translate(190.429688 0)"/>
       <use xlink:href="#DejaVuSans-Bold-69" transform="translate(249.951172 0)"/>
       <use xlink:href="#DejaVuSans-Bold-64" transform="translate(284.228516 0)"/>
       <use xlink:href="#DejaVuSans-Bold-65" transform="translate(355.810547 0)"/>
       <use xlink:href="#DejaVuSans-Bold-6e" transform="translate(423.632812 0)"/>
       <use xlink:href="#DejaVuSans-Bold-7a" transform="translate(494.824219 0)"/>
       <use xlink:href="#DejaVuSans-Bold-61" transform="translate(553.027344 0)"/>
       <use xlink:href="#DejaVuSans-Bold-20" transform="translate(620.507812 0)"/>
       <use xlink:href="#DejaVuSans-Bold-52" transform="translate(655.322266 0)"/>
       <use xlink:href="#DejaVuSans-Bold-65" transform="translate(732.324219 0)"/>
       <use xlink:href="#DejaVuSans-Bold-67" transform="translate(800.146484 0)"/>
       <use xlink:href="#DejaVuSans-Bold-69" transform="translate(871.728516 0)"/>
       <use xlink:href="#DejaVuSans-Bold-6f" transform="translate(906.005859 0)"/>
       <use xlink:href="#DejaVuSans-Bold-6e" transform="translate(974.707031 0)"/>
       <use xlink:href="#DejaVuSans-Bold-65" transform="translate(1045.898438 0)"/>
      </g>
     </g>
    </g>
    <g id="ytick_13">
     <g id="line2d_15"/>
     <g id="text_15">
      <!-- Giunta Regione -->
      <g transform="translate(157.575365 366.592344) scale(0.11 -0.11)">
       <use xlink:href="#DejaVuSans-Bold-47"/>
       <use xlink:href="#DejaVuSans-Bold-69" transform="translate(82.080078 0)"/>
       <use xlink:href="#DejaVuSans-Bold-75" transform="translate(116.357422 0)"/>
       <use xlink:href="#DejaVuSans-Bold-6e" transform="translate(187.548828 0)"/>
       <use xlink:href="#DejaVuSans-Bold-74" transform="translate(258.740234 0)"/>
       <use xlink:href="#DejaVuSans-Bold-61" transform="translate(306.542969 0)"/>
       <use xlink:href="#DejaVuSans-Bold-20" transform="translate(374.023438 0)"/>
       <use xlink:href="#DejaVuSans-Bold-52" transform="translate(408.837891 0)"/>
       <use xlink:href="#DejaVuSans-Bold-65" transform="translate(485.839844 0)"/>
       <use xlink:href="#DejaVuSans-Bold-67" transform="translate(553.662109 0)"/>
       <use xlink:href="#DejaVuSans-Bold-69" transform="translate(625.244141 0)"/>
       <use xlink:href="#DejaVuSans-Bold-6f" transform="translate(659.521484 0)"/>
       <use xlink:href="#DejaVuSans-Bold-6e" transform="translate(728.222656 0)"/>
       <use xlink:href="#DejaVuSans-Bold-65" transform="translate(799.414062 0)"/>
      </g>
     </g>
    </g>
    <g id="ytick_14">
     <g id="line2d_16"/>
     <g id="text_16">
      <!-- Consiglio Regione -->
      <g transform="translate(157.575365 388.768344) scale(0.11 -0.11)">
       <use xlink:href="#DejaVuSans-Bold-43"/>
       <use xlink:href="#DejaVuSans-Bold-6f" transform="translate(73.388672 0)"/>
       <use xlink:href="#DejaVuSans-Bold-6e" transform="translate(142.089844 0)"/>
       <use xlink:href="#DejaVuSans-Bold-73" transform="translate(213.28125 0)"/>
       <use xlink:href="#DejaVuSans-Bold-69" transform="translate(272.802734 0)"/>
       <use xlink:href="#DejaVuSans-Bold-67" transform="translate(307.080078 0)"/>
       <use xlink:href="#DejaVuSans-Bold-6c" transform="translate(378.662109 0)"/>
       <use xlink:href="#DejaVuSans-Bold-69" transform="translate(412.939453 0)"/>
       <use xlink:href="#DejaVuSans-Bold-6f" transform="translate(447.216797 0)"/>
       <use xlink:href="#DejaVuSans-Bold-20" transform="translate(515.917969 0)"/>
       <use xlink:href="#DejaVuSans-Bold-52" transform="translate(550.732422 0)"/>
       <use xlink:href="#DejaVuSans-Bold-65" transform="translate(627.734375 0)"/>
       <use xlink:href="#DejaVuSans-Bold-67" transform="translate(695.556641 0)"/>
       <use xlink:href="#DejaVuSans-Bold-69" transform="translate(767.138672 0)"/>
       <use xlink:href="#DejaVuSans-Bold-6f" transform="translate(801.416016 0)"/>
       <use xlink:href="#DejaVuSans-Bold-6e" transform="translate(870.117188 0)"/>
       <use xlink:href="#DejaVuSans-Bold-65" transform="translate(941.308594 0)"/>
      </g>
     </g>
    </g>
    <g id="ytick_15">
     <g id="line2d_17"/>
     <g id="text_17">
      <!-- Società controllate MEF - CEO -->
      <g transform="translate(157.575365 410.987312) scale(0.11 -0.11)">
       <defs>
        <path id="DejaVuSans-Bold-e0" d="M 2106 1575 
Q 1756 1575 1579 1456 
Q 1403 1338 1403 1106 
Q 1403 894 1545 773 
Q 1688 653 1941 653 
Q 2256 653 2472 879 
Q 2688 1106 2688 1447 
L 2688 1575 
L 2106 1575 
z
M 3816 1997 
L 3816 0 
L 2688 0 
L 2688 519 
Q 2463 200 2181 54 
Q 1900 -91 1497 -91 
Q 953 -91 614 226 
Q 275 544 275 1050 
Q 275 1666 698 1953 
Q 1122 2241 2028 2241 
L 2688 2241 
L 2688 2328 
Q 2688 2594 2478 2717 
Q 2269 2841 1825 2841 
Q 1466 2841 1156 2769 
Q 847 2697 581 2553 
L 581 3406 
Q 941 3494 1303 3539 
Q 1666 3584 2028 3584 
Q 2975 3584 3395 3211 
Q 3816 2838 3816 1997 
z
M 1762 5119 
L 2643 3944 
L 2031 3944 
L 878 5119 
L 1762 5119 
z
" transform="scale(0.015625)"/>
        <path id="DejaVuSans-Bold-45" d="M 588 4666 
L 3834 4666 
L 3834 3756 
L 1791 3756 
L 1791 2888 
L 3713 2888 
L 3713 1978 
L 1791 1978 
L 1791 909 
L 3903 909 
L 3903 0 
L 588 0 
L 588 4666 
z
" transform="scale(0.015625)"/>
        <path id="DejaVuSans-Bold-4f" d="M 2719 3878 
Q 2169 3878 1866 3472 
Q 1563 3066 1563 2328 
Q 1563 1594 1866 1187 
Q 2169 781 2719 781 
Q 3272 781 3575 1187 
Q 3878 1594 3878 2328 
Q 3878 3066 3575 3472 
Q 3272 3878 2719 3878 
z
M 2719 4750 
Q 3844 4750 4481 4106 
Q 5119 3463 5119 2328 
Q 5119 1197 4481 553 
Q 3844 -91 2719 -91 
Q 1597 -91 958 553 
Q 319 1197 319 2328 
Q 319 3463 958 4106 
Q 1597 4750 2719 4750 
z
" transform="scale(0.015625)"/>
       </defs>
       <use xlink:href="#DejaVuSans-Bold-53"/>
       <use xlink:href="#DejaVuSans-Bold-6f" transform="translate(72.021484 0)"/>
       <use xlink:href="#DejaVuSans-Bold-63" transform="translate(140.722656 0)"/>
       <use xlink:href="#DejaVuSans-Bold-69" transform="translate(200 0)"/>
       <use xlink:href="#DejaVuSans-Bold-65" transform="translate(234.277344 0)"/>
       <use xlink:href="#DejaVuSans-Bold-74" transform="translate(302.099609 0)"/>
       <use xlink:href="#DejaVuSans-Bold-e0" transform="translate(349.902344 0)"/>
       <use xlink:href="#DejaVuSans-Bold-20" transform="translate(417.382812 0)"/>
       <use xlink:href="#DejaVuSans-Bold-63" transform="translate(452.197266 0)"/>
       <use xlink:href="#DejaVuSans-Bold-6f" transform="translate(511.474609 0)"/>
       <use xlink:href="#DejaVuSans-Bold-6e" transform="translate(580.175781 0)"/>
       <use xlink:href="#DejaVuSans-Bold-74" transform="translate(651.367188 0)"/>
       <use xlink:href="#DejaVuSans-Bold-72" transform="translate(699.169922 0)"/>
       <use xlink:href="#DejaVuSans-Bold-6f" transform="translate(748.486328 0)"/>
       <use xlink:href="#DejaVuSans-Bold-6c" transform="translate(817.1875 0)"/>
       <use xlink:href="#DejaVuSans-Bold-6c" transform="translate(851.464844 0)"/>
       <use xlink:href="#DejaVuSans-Bold-61" transform="translate(885.742188 0)"/>
       <use xlink:href="#DejaVuSans-Bold-74" transform="translate(953.222656 0)"/>
       <use xlink:href="#DejaVuSans-Bold-65" transform="translate(1001.025391 0)"/>
       <use xlink:href="#DejaVuSans-Bold-20" transform="translate(1068.847656 0)"/>
       <use xlink:href="#DejaVuSans-Bold-4d" transform="translate(1103.662109 0)"/>
       <use xlink:href="#DejaVuSans-Bold-45" transform="translate(1203.173828 0)"/>
       <use xlink:href="#DejaVuSans-Bold-46" transform="translate(1271.484375 0)"/>
       <use xlink:href="#DejaVuSans-Bold-20" transform="translate(1339.794922 0)"/>
       <use xlink:href="#DejaVuSans-Bold-2d" transform="translate(1374.609375 0)"/>
       <use xlink:href="#DejaVuSans-Bold-20" transform="translate(1416.113281 0)"/>
       <use xlink:href="#DejaVuSans-Bold-43" transform="translate(1450.927734 0)"/>
       <use xlink:href="#DejaVuSans-Bold-45" transform="translate(1524.316406 0)"/>
       <use xlink:href="#DejaVuSans-Bold-4f" transform="translate(1592.626953 0)"/>
      </g>
     </g>
    </g>
    <g id="ytick_16">
     <g id="line2d_18"/>
     <g id="text_18">
      <!-- Società quotate - CEO -->
      <g transform="translate(157.575365 433.383312) scale(0.11 -0.11)">
       <defs>
        <path id="DejaVuSans-Bold-71" d="M 2181 2772 
Q 1825 2772 1636 2509 
Q 1447 2247 1447 1747 
Q 1447 1247 1636 984 
Q 1825 722 2181 722 
Q 2541 722 2730 984 
Q 2919 1247 2919 1747 
Q 2919 2247 2730 2509 
Q 2541 2772 2181 2772 
z
M 2919 506 
Q 2688 197 2409 53 
Q 2131 -91 1766 -91 
Q 1119 -91 703 423 
Q 288 938 288 1747 
Q 288 2556 703 3067 
Q 1119 3578 1766 3578 
Q 2131 3578 2409 3434 
Q 2688 3291 2919 2981 
L 2919 3500 
L 4044 3500 
L 4044 -1331 
L 2919 -1331 
L 2919 506 
z
" transform="scale(0.015625)"/>
       </defs>
       <use xlink:href="#DejaVuSans-Bold-53"/>
       <use xlink:href="#DejaVuSans-Bold-6f" transform="translate(72.021484 0)"/>
       <use xlink:href="#DejaVuSans-Bold-63" transform="translate(140.722656 0)"/>
       <use xlink:href="#DejaVuSans-Bold-69" transform="translate(200 0)"/>
       <use xlink:href="#DejaVuSans-Bold-65" transform="translate(234.277344 0)"/>
       <use xlink:href="#DejaVuSans-Bold-74" transform="translate(302.099609 0)"/>
       <use xlink:href="#DejaVuSans-Bold-e0" transform="translate(349.902344 0)"/>
       <use xlink:href="#DejaVuSans-Bold-20" transform="translate(417.382812 0)"/>
       <use xlink:href="#DejaVuSans-Bold-71" transform="translate(452.197266 0)"/>
       <use xlink:href="#DejaVuSans-Bold-75" transform="translate(523.779297 0)"/>
       <use xlink:href="#DejaVuSans-Bold-6f" transform="translate(594.970703 0)"/>
       <use xlink:href="#DejaVuSans-Bold-74" transform="translate(663.671875 0)"/>
       <use xlink:href="#DejaVuSans-Bold-61" transform="translate(711.474609 0)"/>
       <use xlink:href="#DejaVuSans-Bold-74" transform="translate(778.955078 0)"/>
       <use xlink:href="#DejaVuSans-Bold-65" transform="translate(826.757812 0)"/>
       <use xlink:href="#DejaVuSans-Bold-20" transform="translate(894.580078 0)"/>
       <use xlink:href="#DejaVuSans-Bold-2d" transform="translate(929.394531 0)"/>
       <use xlink:href="#DejaVuSans-Bold-20" transform="translate(970.898438 0)"/>
       <use xlink:href="#DejaVuSans-Bold-43" transform="translate(1005.712891 0)"/>
       <use xlink:href="#DejaVuSans-Bold-45" transform="translate(1079.101562 0)"/>
       <use xlink:href="#DejaVuSans-Bold-4f" transform="translate(1147.412109 0)"/>
      </g>
     </g>
    </g>
    <g id="ytick_17">
     <g id="line2d_19"/>
     <g id="text_19">
      <!-- Società quotate - Presidente -->
      <g transform="translate(157.575365 455.559312) scale(0.11 -0.11)">
       <use xlink:href="#DejaVuSans-Bold-53"/>
       <use xlink:href="#DejaVuSans-Bold-6f" transform="translate(72.021484 0)"/>
       <use xlink:href="#DejaVuSans-Bold-63" transform="translate(140.722656 0)"/>
       <use xlink:href="#DejaVuSans-Bold-69" transform="translate(200 0)"/>
       <use xlink:href="#DejaVuSans-Bold-65" transform="translate(234.277344 0)"/>
       <use xlink:href="#DejaVuSans-Bold-74" transform="translate(302.099609 0)"/>
       <use xlink:href="#DejaVuSans-Bold-e0" transform="translate(349.902344 0)"/>
       <use xlink:href="#DejaVuSans-Bold-20" transform="translate(417.382812 0)"/>
       <use xlink:href="#DejaVuSans-Bold-71" transform="translate(452.197266 0)"/>
       <use xlink:href="#DejaVuSans-Bold-75" transform="translate(523.779297 0)"/>
       <use xlink:href="#DejaVuSans-Bold-6f" transform="translate(594.970703 0)"/>
       <use xlink:href="#DejaVuSans-Bold-74" transform="translate(663.671875 0)"/>
       <use xlink:href="#DejaVuSans-Bold-61" transform="translate(711.474609 0)"/>
       <use xlink:href="#DejaVuSans-Bold-74" transform="translate(778.955078 0)"/>
       <use xlink:href="#DejaVuSans-Bold-65" transform="translate(826.757812 0)"/>
       <use xlink:href="#DejaVuSans-Bold-20" transform="translate(894.580078 0)"/>
       <use xlink:href="#DejaVuSans-Bold-2d" transform="translate(929.394531 0)"/>
       <use xlink:href="#DejaVuSans-Bold-20" transform="translate(970.898438 0)"/>
       <use xlink:href="#DejaVuSans-Bold-50" transform="translate(1005.712891 0)"/>
       <use xlink:href="#DejaVuSans-Bold-72" transform="translate(1079.003906 0)"/>
       <use xlink:href="#DejaVuSans-Bold-65" transform="translate(1128.320312 0)"/>
       <use xlink:href="#DejaVuSans-Bold-73" transform="translate(1196.142578 0)"/>
       <use xlink:href="#DejaVuSans-Bold-69" transform="translate(1255.664062 0)"/>
       <use xlink:href="#DejaVuSans-Bold-64" transform="translate(1289.941406 0)"/>
       <use xlink:href="#DejaVuSans-Bold-65" transform="translate(1361.523438 0)"/>
       <use xlink:href="#DejaVuSans-Bold-6e" transform="translate(1429.345703 0)"/>
       <use xlink:href="#DejaVuSans-Bold-74" transform="translate(1500.537109 0)"/>
       <use xlink:href="#DejaVuSans-Bold-65" transform="translate(1548.339844 0)"/>
      </g>
     </g>
    </g>
    <g id="ytick_18">
     <g id="line2d_20"/>
     <g id="text_20">
      <!-- Gruppi bancari - CEO -->
      <g transform="translate(157.575365 477.515312) scale(0.11 -0.11)">
       <defs>
        <path id="DejaVuSans-Bold-70" d="M 1656 506 
L 1656 -1331 
L 538 -1331 
L 538 3500 
L 1656 3500 
L 1656 2988 
Q 1888 3294 2169 3439 
Q 2450 3584 2816 3584 
Q 3463 3584 3878 3070 
Q 4294 2556 4294 1747 
Q 4294 938 3878 423 
Q 3463 -91 2816 -91 
Q 2450 -91 2169 54 
Q 1888 200 1656 506 
z
M 2400 2772 
Q 2041 2772 1848 2508 
Q 1656 2244 1656 1747 
Q 1656 1250 1848 986 
Q 2041 722 2400 722 
Q 2759 722 2948 984 
Q 3138 1247 3138 1747 
Q 3138 2247 2948 2509 
Q 2759 2772 2400 2772 
z
" transform="scale(0.015625)"/>
       </defs>
       <use xlink:href="#DejaVuSans-Bold-47"/>
       <use xlink:href="#DejaVuSans-Bold-72" transform="translate(82.080078 0)"/>
       <use xlink:href="#DejaVuSans-Bold-75" transform="translate(131.396484 0)"/>
       <use xlink:href="#DejaVuSans-Bold-70" transform="translate(202.587891 0)"/>
       <use xlink:href="#DejaVuSans-Bold-70" transform="translate(274.169922 0)"/>
       <use xlink:href="#DejaVuSans-Bold-69" transform="translate(345.751953 0)"/>
       <use xlink:href="#DejaVuSans-Bold-20" transform="translate(380.029297 0)"/>
       <use xlink:href="#DejaVuSans-Bold-62" transform="translate(414.84375 0)"/>
       <use xlink:href="#DejaVuSans-Bold-61" transform="translate(486.425781 0)"/>
       <use xlink:href="#DejaVuSans-Bold-6e" transform="translate(553.90625 0)"/>
       <use xlink:href="#DejaVuSans-Bold-63" transform="translate(625.097656 0)"/>
       <use xlink:href="#DejaVuSans-Bold-61" transform="translate(684.375 0)"/>
       <use xlink:href="#DejaVuSans-Bold-72" transform="translate(751.855469 0)"/>
       <use xlink:href="#DejaVuSans-Bold-69" transform="translate(801.171875 0)"/>
       <use xlink:href="#DejaVuSans-Bold-20" transform="translate(835.449219 0)"/>
       <use xlink:href="#DejaVuSans-Bold-2d" transform="translate(870.263672 0)"/>
       <use xlink:href="#DejaVuSans-Bold-20" transform="translate(911.767578 0)"/>
       <use xlink:href="#DejaVuSans-Bold-43" transform="translate(946.582031 0)"/>
       <use xlink:href="#DejaVuSans-Bold-45" transform="translate(1019.970703 0)"/>
       <use xlink:href="#DejaVuSans-Bold-4f" transform="translate(1088.28125 0)"/>
      </g>
     </g>
    </g>
    <g id="ytick_19">
     <g id="line2d_21"/>
     <g id="text_21">
      <!-- Gruppi Tech - CEO -->
      <g transform="translate(157.575365 499.691312) scale(0.11 -0.11)">
       <defs>
        <path id="DejaVuSans-Bold-54" d="M 31 4666 
L 4331 4666 
L 4331 3756 
L 2784 3756 
L 2784 0 
L 1581 0 
L 1581 3756 
L 31 3756 
L 31 4666 
z
" transform="scale(0.015625)"/>
        <path id="DejaVuSans-Bold-68" d="M 4056 2131 
L 4056 0 
L 2931 0 
L 2931 347 
L 2931 1625 
Q 2931 2084 2911 2256 
Q 2891 2428 2841 2509 
Q 2775 2619 2662 2680 
Q 2550 2741 2406 2741 
Q 2056 2741 1856 2470 
Q 1656 2200 1656 1722 
L 1656 0 
L 538 0 
L 538 4863 
L 1656 4863 
L 1656 2988 
Q 1909 3294 2193 3439 
Q 2478 3584 2822 3584 
Q 3428 3584 3742 3212 
Q 4056 2841 4056 2131 
z
" transform="scale(0.015625)"/>
       </defs>
       <use xlink:href="#DejaVuSans-Bold-47"/>
       <use xlink:href="#DejaVuSans-Bold-72" transform="translate(82.080078 0)"/>
       <use xlink:href="#DejaVuSans-Bold-75" transform="translate(131.396484 0)"/>
       <use xlink:href="#DejaVuSans-Bold-70" transform="translate(202.587891 0)"/>
       <use xlink:href="#DejaVuSans-Bold-70" transform="translate(274.169922 0)"/>
       <use xlink:href="#DejaVuSans-Bold-69" transform="translate(345.751953 0)"/>
       <use xlink:href="#DejaVuSans-Bold-20" transform="translate(380.029297 0)"/>
       <use xlink:href="#DejaVuSans-Bold-54" transform="translate(414.84375 0)"/>
       <use xlink:href="#DejaVuSans-Bold-65" transform="translate(469.806641 0)"/>
       <use xlink:href="#DejaVuSans-Bold-63" transform="translate(537.628906 0)"/>
       <use xlink:href="#DejaVuSans-Bold-68" transform="translate(596.90625 0)"/>
       <use xlink:href="#DejaVuSans-Bold-20" transform="translate(668.097656 0)"/>
       <use xlink:href="#DejaVuSans-Bold-2d" transform="translate(702.912109 0)"/>
       <use xlink:href="#DejaVuSans-Bold-20" transform="translate(744.416016 0)"/>
       <use xlink:href="#DejaVuSans-Bold-43" transform="translate(779.230469 0)"/>
       <use xlink:href="#DejaVuSans-Bold-45" transform="translate(852.619141 0)"/>
       <use xlink:href="#DejaVuSans-Bold-4f" transform="translate(920.929688 0)"/>
      </g>
     </g>
    </g>
    <g id="ytick_20">
     <g id="line2d_22"/>
     <g id="text_22">
      <!-- Quotidiani - Direzione -->
      <g transform="translate(157.575365 521.867313) scale(0.11 -0.11)">
       <defs>
        <path id="DejaVuSans-Bold-51" d="M 2847 -84 
L 2753 -84 
Q 1600 -84 959 553 
Q 319 1191 319 2328 
Q 319 3463 958 4106 
Q 1597 4750 2719 4750 
Q 3853 4750 4486 4112 
Q 5119 3475 5119 2328 
Q 5119 1541 4783 972 
Q 4447 403 3816 116 
L 4756 -934 
L 3609 -934 
L 2847 -84 
z
M 2719 3878 
Q 2169 3878 1866 3472 
Q 1563 3066 1563 2328 
Q 1563 1578 1859 1179 
Q 2156 781 2719 781 
Q 3272 781 3575 1187 
Q 3878 1594 3878 2328 
Q 3878 3066 3575 3472 
Q 3272 3878 2719 3878 
z
" transform="scale(0.015625)"/>
        <path id="DejaVuSans-Bold-44" d="M 1791 3756 
L 1791 909 
L 2222 909 
Q 2959 909 3348 1275 
Q 3738 1641 3738 2338 
Q 3738 3031 3350 3393 
Q 2963 3756 2222 3756 
L 1791 3756 
z
M 588 4666 
L 1856 4666 
Q 2919 4666 3439 4514 
Q 3959 4363 4331 4000 
Q 4659 3684 4818 3271 
Q 4978 2859 4978 2338 
Q 4978 1809 4818 1395 
Q 4659 981 4331 666 
Q 3956 303 3431 151 
Q 2906 0 1856 0 
L 588 0 
L 588 4666 
z
" transform="scale(0.015625)"/>
       </defs>
       <use xlink:href="#DejaVuSans-Bold-51"/>
       <use xlink:href="#DejaVuSans-Bold-75" transform="translate(85.009766 0)"/>
       <use xlink:href="#DejaVuSans-Bold-6f" transform="translate(156.201172 0)"/>
       <use xlink:href="#DejaVuSans-Bold-74" transform="translate(224.902344 0)"/>
       <use xlink:href="#DejaVuSans-Bold-69" transform="translate(272.705078 0)"/>
       <use xlink:href="#DejaVuSans-Bold-64" transform="translate(306.982422 0)"/>
       <use xlink:href="#DejaVuSans-Bold-69" transform="translate(378.564453 0)"/>
       <use xlink:href="#DejaVuSans-Bold-61" transform="translate(412.841797 0)"/>
       <use xlink:href="#DejaVuSans-Bold-6e" transform="translate(480.322266 0)"/>
       <use xlink:href="#DejaVuSans-Bold-69" transform="translate(551.513672 0)"/>
       <use xlink:href="#DejaVuSans-Bold-20" transform="translate(585.791016 0)"/>
       <use xlink:href="#DejaVuSans-Bold-2d" transform="translate(620.605469 0)"/>
       <use xlink:href="#DejaVuSans-Bold-20" transform="translate(662.109375 0)"/>
       <use xlink:href="#DejaVuSans-Bold-44" transform="translate(696.923828 0)"/>
       <use xlink:href="#DejaVuSans-Bold-69" transform="translate(779.931641 0)"/>
       <use xlink:href="#DejaVuSans-Bold-72" transform="translate(814.208984 0)"/>
       <use xlink:href="#DejaVuSans-Bold-65" transform="translate(863.525391 0)"/>
       <use xlink:href="#DejaVuSans-Bold-7a" transform="translate(931.347656 0)"/>
       <use xlink:href="#DejaVuSans-Bold-69" transform="translate(989.550781 0)"/>
       <use xlink:href="#DejaVuSans-Bold-6f" transform="translate(1023.828125 0)"/>
       <use xlink:href="#DejaVuSans-Bold-6e" transform="translate(1092.529297 0)"/>
       <use xlink:href="#DejaVuSans-Bold-65" transform="translate(1163.720703 0)"/>
      </g>
     </g>
    </g>
    <g id="ytick_21">
     <g id="line2d_23"/>
     <g id="text_23">
      <!-- TG - Direzione -->
      <g transform="translate(157.575365 544.043312) scale(0.11 -0.11)">
       <use xlink:href="#DejaVuSans-Bold-54"/>
       <use xlink:href="#DejaVuSans-Bold-47" transform="translate(68.212891 0)"/>
       <use xlink:href="#DejaVuSans-Bold-20" transform="translate(150.292969 0)"/>
       <use xlink:href="#DejaVuSans-Bold-2d" transform="translate(185.107422 0)"/>
       <use xlink:href="#DejaVuSans-Bold-20" transform="translate(226.611328 0)"/>
       <use xlink:href="#DejaVuSans-Bold-44" transform="translate(261.425781 0)"/>
       <use xlink:href="#DejaVuSans-Bold-69" transform="translate(344.433594 0)"/>
       <use xlink:href="#DejaVuSans-Bold-72" transform="translate(378.710938 0)"/>
       <use xlink:href="#DejaVuSans-Bold-65" transform="translate(428.027344 0)"/>
       <use xlink:href="#DejaVuSans-Bold-7a" transform="translate(495.849609 0)"/>
       <use xlink:href="#DejaVuSans-Bold-69" transform="translate(554.052734 0)"/>
       <use xlink:href="#DejaVuSans-Bold-6f" transform="translate(588.330078 0)"/>
       <use xlink:href="#DejaVuSans-Bold-6e" transform="translate(657.03125 0)"/>
       <use xlink:href="#DejaVuSans-Bold-65" transform="translate(728.222656 0)"/>
      </g>
     </g>
    </g>
    <g id="ytick_22">
     <g id="line2d_24"/>
     <g id="text_24">
      <!-- Agenzie di stampa - Direzione -->
      <g transform="translate(157.575365 566.176344) scale(0.11 -0.11)">
       <use xlink:href="#DejaVuSans-Bold-41"/>
       <use xlink:href="#DejaVuSans-Bold-67" transform="translate(77.392578 0)"/>
       <use xlink:href="#DejaVuSans-Bold-65" transform="translate(148.974609 0)"/>
       <use xlink:href="#DejaVuSans-Bold-6e" transform="translate(216.796875 0)"/>
       <use xlink:href="#DejaVuSans-Bold-7a" transform="translate(287.988281 0)"/>
       <use xlink:href="#DejaVuSans-Bold-69" transform="translate(346.191406 0)"/>
       <use xlink:href="#DejaVuSans-Bold-65" transform="translate(380.46875 0)"/>
       <use xlink:href="#DejaVuSans-Bold-20" transform="translate(448.291016 0)"/>
       <use xlink:href="#DejaVuSans-Bold-64" transform="translate(483.105469 0)"/>
       <use xlink:href="#DejaVuSans-Bold-69" transform="translate(554.6875 0)"/>
       <use xlink:href="#DejaVuSans-Bold-20" transform="translate(588.964844 0)"/>
       <use xlink:href="#DejaVuSans-Bold-73" transform="translate(623.779297 0)"/>
       <use xlink:href="#DejaVuSans-Bold-74" transform="translate(683.300781 0)"/>
       <use xlink:href="#DejaVuSans-Bold-61" transform="translate(731.103516 0)"/>
       <use xlink:href="#DejaVuSans-Bold-6d" transform="translate(798.583984 0)"/>
       <use xlink:href="#DejaVuSans-Bold-70" transform="translate(902.783203 0)"/>
       <use xlink:href="#DejaVuSans-Bold-61" transform="translate(974.365234 0)"/>
       <use xlink:href="#DejaVuSans-Bold-20" transform="translate(1041.845703 0)"/>
       <use xlink:href="#DejaVuSans-Bold-2d" transform="translate(1076.660156 0)"/>
       <use xlink:href="#DejaVuSans-Bold-20" transform="translate(1118.164062 0)"/>
       <use xlink:href="#DejaVuSans-Bold-44" transform="translate(1152.978516 0)"/>
       <use xlink:href="#DejaVuSans-Bold-69" transform="translate(1235.986328 0)"/>
       <use xlink:href="#DejaVuSans-Bold-72" transform="translate(1270.263672 0)"/>
       <use xlink:href="#DejaVuSans-Bold-65" transform="translate(1319.580078 0)"/>
       <use xlink:href="#DejaVuSans-Bold-7a" transform="translate(1387.402344 0)"/>
       <use xlink:href="#DejaVuSans-Bold-69" transform="translate(1445.605469 0)"/>
       <use xlink:href="#DejaVuSans-Bold-6f" transform="translate(1479.882812 0)"/>
       <use xlink:href="#DejaVuSans-Bold-6e" transform="translate(1548.583984 0)"/>
       <use xlink:href="#DejaVuSans-Bold-65" transform="translate(1619.775391 0)"/>
      </g>
     </g>
    </g>
    <g id="ytick_23">
     <g id="line2d_25"/>
     <g id="text_25">
      <!-- Atenei - Rettore o rettrice -->
      <g transform="translate(157.575365 588.395313) scale(0.11 -0.11)">
       <use xlink:href="#DejaVuSans-Bold-41"/>
       <use xlink:href="#DejaVuSans-Bold-74" transform="translate(77.392578 0)"/>
       <use xlink:href="#DejaVuSans-Bold-65" transform="translate(125.195312 0)"/>
       <use xlink:href="#DejaVuSans-Bold-6e" transform="translate(193.017578 0)"/>
       <use xlink:href="#DejaVuSans-Bold-65" transform="translate(264.208984 0)"/>
       <use xlink:href="#DejaVuSans-Bold-69" transform="translate(332.03125 0)"/>
       <use xlink:href="#DejaVuSans-Bold-20" transform="translate(366.308594 0)"/>
       <use xlink:href="#DejaVuSans-Bold-2d" transform="translate(401.123047 0)"/>
       <use xlink:href="#DejaVuSans-Bold-20" transform="translate(442.626953 0)"/>
       <use xlink:href="#DejaVuSans-Bold-52" transform="translate(477.441406 0)"/>
       <use xlink:href="#DejaVuSans-Bold-65" transform="translate(554.443359 0)"/>
       <use xlink:href="#DejaVuSans-Bold-74" transform="translate(622.265625 0)"/>
       <use xlink:href="#DejaVuSans-Bold-74" transform="translate(670.068359 0)"/>
       <use xlink:href="#DejaVuSans-Bold-6f" transform="translate(717.871094 0)"/>
       <use xlink:href="#DejaVuSans-Bold-72" transform="translate(786.572266 0)"/>
       <use xlink:href="#DejaVuSans-Bold-65" transform="translate(835.888672 0)"/>
       <use xlink:href="#DejaVuSans-Bold-20" transform="translate(903.710938 0)"/>
       <use xlink:href="#DejaVuSans-Bold-6f" transform="translate(938.525391 0)"/>
       <use xlink:href="#DejaVuSans-Bold-20" transform="translate(1007.226562 0)"/>
       <use xlink:href="#DejaVuSans-Bold-72" transform="translate(1042.041016 0)"/>
       <use xlink:href="#DejaVuSans-Bold-65" transform="translate(1091.357422 0)"/>
       <use xlink:href="#DejaVuSans-Bold-74" transform="translate(1159.179688 0)"/>
       <use xlink:href="#DejaVuSans-Bold-74" transform="translate(1206.982422 0)"/>
       <use xlink:href="#DejaVuSans-Bold-72" transform="translate(1254.785156 0)"/>
       <use xlink:href="#DejaVuSans-Bold-69" transform="translate(1304.101562 0)"/>
       <use xlink:href="#DejaVuSans-Bold-63" transform="translate(1338.378906 0)"/>
       <use xlink:href="#DejaVuSans-Bold-65" transform="translate(1397.65625 0)"/>
      </g>
     </g>
    </g>
    <g id="ytick_24">
     <g id="line2d_26"/>
     <g id="text_26">
      <!-- Enti di ricerca - Direttore generale -->
      <g transform="translate(157.575365 610.528344) scale(0.11 -0.11)">
       <use xlink:href="#DejaVuSans-Bold-45"/>
       <use xlink:href="#DejaVuSans-Bold-6e" transform="translate(68.310547 0)"/>
       <use xlink:href="#DejaVuSans-Bold-74" transform="translate(139.501953 0)"/>
       <use xlink:href="#DejaVuSans-Bold-69" transform="translate(187.304688 0)"/>
       <use xlink:href="#DejaVuSans-Bold-20" transform="translate(221.582031 0)"/>
       <use xlink:href="#DejaVuSans-Bold-64" transform="translate(256.396484 0)"/>
       <use xlink:href="#DejaVuSans-Bold-69" transform="translate(327.978516 0)"/>
       <use xlink:href="#DejaVuSans-Bold-20" transform="translate(362.255859 0)"/>
       <use xlink:href="#DejaVuSans-Bold-72" transform="translate(397.070312 0)"/>
       <use xlink:href="#DejaVuSans-Bold-69" transform="translate(446.386719 0)"/>
       <use xlink:href="#DejaVuSans-Bold-63" transform="translate(480.664062 0)"/>
       <use xlink:href="#DejaVuSans-Bold-65" transform="translate(539.941406 0)"/>
       <use xlink:href="#DejaVuSans-Bold-72" transform="translate(607.763672 0)"/>
       <use xlink:href="#DejaVuSans-Bold-63" transform="translate(657.080078 0)"/>
       <use xlink:href="#DejaVuSans-Bold-61" transform="translate(716.357422 0)"/>
       <use xlink:href="#DejaVuSans-Bold-20" transform="translate(783.837891 0)"/>
       <use xlink:href="#DejaVuSans-Bold-2d" transform="translate(818.652344 0)"/>
       <use xlink:href="#DejaVuSans-Bold-20" transform="translate(860.15625 0)"/>
       <use xlink:href="#DejaVuSans-Bold-44" transform="translate(894.970703 0)"/>
       <use xlink:href="#DejaVuSans-Bold-69" transform="translate(977.978516 0)"/>
       <use xlink:href="#DejaVuSans-Bold-72" transform="translate(1012.255859 0)"/>
       <use xlink:href="#DejaVuSans-Bold-65" transform="translate(1061.572266 0)"/>
       <use xlink:href="#DejaVuSans-Bold-74" transform="translate(1129.394531 0)"/>
       <use xlink:href="#DejaVuSans-Bold-74" transform="translate(1177.197266 0)"/>
       <use xlink:href="#DejaVuSans-Bold-6f" transform="translate(1225 0)"/>
       <use xlink:href="#DejaVuSans-Bold-72" transform="translate(1293.701172 0)"/>
       <use xlink:href="#DejaVuSans-Bold-65" transform="translate(1343.017578 0)"/>
       <use xlink:href="#DejaVuSans-Bold-20" transform="translate(1410.839844 0)"/>
       <use xlink:href="#DejaVuSans-Bold-67" transform="translate(1445.654297 0)"/>
       <use xlink:href="#DejaVuSans-Bold-65" transform="translate(1517.236328 0)"/>
       <use xlink:href="#DejaVuSans-Bold-6e" transform="translate(1585.058594 0)"/>
       <use xlink:href="#DejaVuSans-Bold-65" transform="translate(1656.25 0)"/>
       <use xlink:href="#DejaVuSans-Bold-72" transform="translate(1724.072266 0)"/>
       <use xlink:href="#DejaVuSans-Bold-61" transform="translate(1773.388672 0)"/>
       <use xlink:href="#DejaVuSans-Bold-6c" transform="translate(1840.869141 0)"/>
       <use xlink:href="#DejaVuSans-Bold-65" transform="translate(1875.146484 0)"/>
      </g>
     </g>
    </g>
    <g id="ytick_25">
     <g id="line2d_27"/>
     <g id="text_27">
      <!-- Autorità indipendenti - Presidente -->
      <g transform="translate(157.575365 632.967312) scale(0.11 -0.11)">
       <use xlink:href="#DejaVuSans-Bold-41"/>
       <use xlink:href="#DejaVuSans-Bold-75" transform="translate(77.392578 0)"/>
       <use xlink:href="#DejaVuSans-Bold-74" transform="translate(148.583984 0)"/>
       <use xlink:href="#DejaVuSans-Bold-6f" transform="translate(196.386719 0)"/>
       <use xlink:href="#DejaVuSans-Bold-72" transform="translate(265.087891 0)"/>
       <use xlink:href="#DejaVuSans-Bold-69" transform="translate(314.404297 0)"/>
       <use xlink:href="#DejaVuSans-Bold-74" transform="translate(348.681641 0)"/>
       <use xlink:href="#DejaVuSans-Bold-e0" transform="translate(396.484375 0)"/>
       <use xlink:href="#DejaVuSans-Bold-20" transform="translate(463.964844 0)"/>
       <use xlink:href="#DejaVuSans-Bold-69" transform="translate(498.779297 0)"/>
       <use xlink:href="#DejaVuSans-Bold-6e" transform="translate(533.056641 0)"/>
       <use xlink:href="#DejaVuSans-Bold-64" transform="translate(604.248047 0)"/>
       <use xlink:href="#DejaVuSans-Bold-69" transform="translate(675.830078 0)"/>
       <use xlink:href="#DejaVuSans-Bold-70" transform="translate(710.107422 0)"/>
       <use xlink:href="#DejaVuSans-Bold-65" transform="translate(781.689453 0)"/>
       <use xlink:href="#DejaVuSans-Bold-6e" transform="translate(849.511719 0)"/>
       <use xlink:href="#DejaVuSans-Bold-64" transform="translate(920.703125 0)"/>
       <use xlink:href="#DejaVuSans-Bold-65" transform="translate(992.285156 0)"/>
       <use xlink:href="#DejaVuSans-Bold-6e" transform="translate(1060.107422 0)"/>
       <use xlink:href="#DejaVuSans-Bold-74" transform="translate(1131.298828 0)"/>
       <use xlink:href="#DejaVuSans-Bold-69" transform="translate(1179.101562 0)"/>
       <use xlink:href="#DejaVuSans-Bold-20" transform="translate(1213.378906 0)"/>
       <use xlink:href="#DejaVuSans-Bold-2d" transform="translate(1248.193359 0)"/>
       <use xlink:href="#DejaVuSans-Bold-20" transform="translate(1289.697266 0)"/>
       <use xlink:href="#DejaVuSans-Bold-50" transform="translate(1324.511719 0)"/>
       <use xlink:href="#DejaVuSans-Bold-72" transform="translate(1397.802734 0)"/>
       <use xlink:href="#DejaVuSans-Bold-65" transform="translate(1447.119141 0)"/>
       <use xlink:href="#DejaVuSans-Bold-73" transform="translate(1514.941406 0)"/>
       <use xlink:href="#DejaVuSans-Bold-69" transform="translate(1574.462891 0)"/>
       <use xlink:href="#DejaVuSans-Bold-64" transform="translate(1608.740234 0)"/>
       <use xlink:href="#DejaVuSans-Bold-65" transform="translate(1680.322266 0)"/>
       <use xlink:href="#DejaVuSans-Bold-6e" transform="translate(1748.144531 0)"/>
       <use xlink:href="#DejaVuSans-Bold-74" transform="translate(1819.335938 0)"/>
       <use xlink:href="#DejaVuSans-Bold-65" transform="translate(1867.138672 0)"/>
      </g>
     </g>
    </g>
   </g>
   <g id="text_28">
    <!-- 0 -->
    <g style="fill: #262626" transform="translate(472.91575 100.79925) scale(0.12 -0.12)">
     <use xlink:href="#DejaVuSans-Bold-30"/>
    </g>
   </g>
   <g id="text_29">
    <!-- 1 -->
    <g style="fill: #ffffff" transform="translate(631.945896 100.79925) scale(0.12 -0.12)">
     <use xlink:href="#DejaVuSans-Bold-31"/>
    </g>
   </g>
   <g id="text_30">
    <!-- 18 -->
    <g style="fill: #ffffff" transform="translate(468.741063 122.97525) scale(0.12 -0.12)">
     <defs>
      <path id="DejaVuSans-Bold-38" d="M 2228 2088 
Q 1891 2088 1709 1903 
Q 1528 1719 1528 1375 
Q 1528 1031 1709 848 
Q 1891 666 2228 666 
Q 2563 666 2741 848 
Q 2919 1031 2919 1375 
Q 2919 1722 2741 1905 
Q 2563 2088 2228 2088 
z
M 1350 2484 
Q 925 2613 709 2878 
Q 494 3144 494 3541 
Q 494 4131 934 4440 
Q 1375 4750 2228 4750 
Q 3075 4750 3515 4442 
Q 3956 4134 3956 3541 
Q 3956 3144 3739 2878 
Q 3522 2613 3097 2484 
Q 3572 2353 3814 2058 
Q 4056 1763 4056 1313 
Q 4056 619 3595 264 
Q 3134 -91 2228 -91 
Q 1319 -91 855 264 
Q 391 619 391 1313 
Q 391 1763 633 2058 
Q 875 2353 1350 2484 
z
M 1631 3419 
Q 1631 3141 1786 2991 
Q 1941 2841 2228 2841 
Q 2509 2841 2662 2991 
Q 2816 3141 2816 3419 
Q 2816 3697 2662 3845 
Q 2509 3994 2228 3994 
Q 1941 3994 1786 3844 
Q 1631 3694 1631 3419 
z
" transform="scale(0.015625)"/>
     </defs>
     <use xlink:href="#DejaVuSans-Bold-31"/>
     <use xlink:href="#DejaVuSans-Bold-38" transform="translate(69.580078 0)"/>
    </g>
   </g>
   <g id="text_31">
    <!-- 6 -->
    <g style="fill: #262626" transform="translate(631.945896 122.97525) scale(0.12 -0.12)">
     <defs>
      <path id="DejaVuSans-Bold-36" d="M 2316 2303 
Q 2000 2303 1842 2098 
Q 1684 1894 1684 1484 
Q 1684 1075 1842 870 
Q 2000 666 2316 666 
Q 2634 666 2792 870 
Q 2950 1075 2950 1484 
Q 2950 1894 2792 2098 
Q 2634 2303 2316 2303 
z
M 3803 4544 
L 3803 3681 
Q 3506 3822 3243 3889 
Q 2981 3956 2731 3956 
Q 2194 3956 1894 3657 
Q 1594 3359 1544 2772 
Q 1750 2925 1990 3001 
Q 2231 3078 2516 3078 
Q 3231 3078 3670 2659 
Q 4109 2241 4109 1563 
Q 4109 813 3618 361 
Q 3128 -91 2303 -91 
Q 1394 -91 895 523 
Q 397 1138 397 2266 
Q 397 3422 980 4083 
Q 1563 4744 2578 4744 
Q 2900 4744 3203 4694 
Q 3506 4644 3803 4544 
z
" transform="scale(0.015625)"/>
     </defs>
     <use xlink:href="#DejaVuSans-Bold-36"/>
    </g>
   </g>
   <g id="text_32">
    <!-- 1 -->
    <g style="fill: #ffffff" transform="translate(472.91575 145.15125) scale(0.12 -0.12)">
     <use xlink:href="#DejaVuSans-Bold-31"/>
    </g>
   </g>
   <g id="text_33">
    <!-- 0 -->
    <g style="fill: #262626" transform="translate(631.945896 145.15125) scale(0.12 -0.12)">
     <use xlink:href="#DejaVuSans-Bold-30"/>
    </g>
   </g>
   <g id="text_34">
    <!-- 267 -->
    <g style="fill: #ffffff" transform="translate(464.566375 167.32725) scale(0.12 -0.12)">
     <defs>
      <path id="DejaVuSans-Bold-32" d="M 1844 884 
L 3897 884 
L 3897 0 
L 506 0 
L 506 884 
L 2209 2388 
Q 2438 2594 2547 2791 
Q 2656 2988 2656 3200 
Q 2656 3528 2436 3728 
Q 2216 3928 1850 3928 
Q 1569 3928 1234 3808 
Q 900 3688 519 3450 
L 519 4475 
Q 925 4609 1322 4679 
Q 1719 4750 2100 4750 
Q 2938 4750 3402 4381 
Q 3866 4013 3866 3353 
Q 3866 2972 3669 2642 
Q 3472 2313 2841 1759 
L 1844 884 
z
" transform="scale(0.015625)"/>
      <path id="DejaVuSans-Bold-37" d="M 428 4666 
L 3944 4666 
L 3944 3988 
L 2125 0 
L 953 0 
L 2675 3781 
L 428 3781 
L 428 4666 
z
" transform="scale(0.015625)"/>
     </defs>
     <use xlink:href="#DejaVuSans-Bold-32"/>
     <use xlink:href="#DejaVuSans-Bold-36" transform="translate(69.580078 0)"/>
     <use xlink:href="#DejaVuSans-Bold-37" transform="translate(139.160156 0)"/>
    </g>
   </g>
   <g id="text_35">
    <!-- 132 -->
    <g style="fill: #262626" transform="translate(623.596521 167.32725) scale(0.12 -0.12)">
     <defs>
      <path id="DejaVuSans-Bold-33" d="M 2981 2516 
Q 3453 2394 3698 2092 
Q 3944 1791 3944 1325 
Q 3944 631 3412 270 
Q 2881 -91 1863 -91 
Q 1503 -91 1142 -33 
Q 781 25 428 141 
L 428 1069 
Q 766 900 1098 814 
Q 1431 728 1753 728 
Q 2231 728 2486 893 
Q 2741 1059 2741 1369 
Q 2741 1688 2480 1852 
Q 2219 2016 1709 2016 
L 1228 2016 
L 1228 2791 
L 1734 2791 
Q 2188 2791 2409 2933 
Q 2631 3075 2631 3366 
Q 2631 3634 2415 3781 
Q 2200 3928 1806 3928 
Q 1516 3928 1219 3862 
Q 922 3797 628 3669 
L 628 4550 
Q 984 4650 1334 4700 
Q 1684 4750 2022 4750 
Q 2931 4750 3382 4451 
Q 3834 4153 3834 3553 
Q 3834 3144 3618 2883 
Q 3403 2622 2981 2516 
z
" transform="scale(0.015625)"/>
     </defs>
     <use xlink:href="#DejaVuSans-Bold-31"/>
     <use xlink:href="#DejaVuSans-Bold-33" transform="translate(69.580078 0)"/>
     <use xlink:href="#DejaVuSans-Bold-32" transform="translate(139.160156 0)"/>
    </g>
   </g>
   <g id="text_36">
    <!-- 1 -->
    <g style="fill: #ffffff" transform="translate(472.91575 189.50325) scale(0.12 -0.12)">
     <use xlink:href="#DejaVuSans-Bold-31"/>
    </g>
   </g>
   <g id="text_37">
    <!-- 0 -->
    <g style="fill: #262626" transform="translate(631.945896 189.50325) scale(0.12 -0.12)">
     <use xlink:href="#DejaVuSans-Bold-30"/>
    </g>
   </g>
   <g id="text_38">
    <!-- 129 -->
    <g style="fill: #ffffff" transform="translate(464.566375 211.67925) scale(0.12 -0.12)">
     <defs>
      <path id="DejaVuSans-Bold-39" d="M 641 103 
L 641 966 
Q 928 831 1190 764 
Q 1453 697 1709 697 
Q 2247 697 2547 995 
Q 2847 1294 2900 1881 
Q 2688 1725 2447 1647 
Q 2206 1569 1925 1569 
Q 1209 1569 770 1986 
Q 331 2403 331 3084 
Q 331 3838 820 4291 
Q 1309 4744 2131 4744 
Q 3044 4744 3544 4128 
Q 4044 3513 4044 2388 
Q 4044 1231 3459 570 
Q 2875 -91 1856 -91 
Q 1528 -91 1228 -42 
Q 928 6 641 103 
z
M 2125 2350 
Q 2441 2350 2600 2554 
Q 2759 2759 2759 3169 
Q 2759 3575 2600 3781 
Q 2441 3988 2125 3988 
Q 1809 3988 1650 3781 
Q 1491 3575 1491 3169 
Q 1491 2759 1650 2554 
Q 1809 2350 2125 2350 
z
" transform="scale(0.015625)"/>
     </defs>
     <use xlink:href="#DejaVuSans-Bold-31"/>
     <use xlink:href="#DejaVuSans-Bold-32" transform="translate(69.580078 0)"/>
     <use xlink:href="#DejaVuSans-Bold-39" transform="translate(139.160156 0)"/>
    </g>
   </g>
   <g id="text_39">
    <!-- 75 -->
    <g style="fill: #262626" transform="translate(627.771208 211.67925) scale(0.12 -0.12)">
     <defs>
      <path id="DejaVuSans-Bold-35" d="M 678 4666 
L 3669 4666 
L 3669 3781 
L 1638 3781 
L 1638 3059 
Q 1775 3097 1914 3117 
Q 2053 3138 2203 3138 
Q 3056 3138 3531 2711 
Q 4006 2284 4006 1522 
Q 4006 766 3489 337 
Q 2972 -91 2053 -91 
Q 1656 -91 1267 -14 
Q 878 63 494 219 
L 494 1166 
Q 875 947 1217 837 
Q 1559 728 1863 728 
Q 2300 728 2551 942 
Q 2803 1156 2803 1522 
Q 2803 1891 2551 2103 
Q 2300 2316 1863 2316 
Q 1603 2316 1309 2248 
Q 1016 2181 678 2041 
L 678 4666 
z
" transform="scale(0.015625)"/>
     </defs>
     <use xlink:href="#DejaVuSans-Bold-37"/>
     <use xlink:href="#DejaVuSans-Bold-35" transform="translate(69.580078 0)"/>
    </g>
   </g>
   <g id="text_40">
    <!-- 153 -->
    <g style="fill: #ffffff" transform="translate(464.566375 233.85525) scale(0.12 -0.12)">
     <use xlink:href="#DejaVuSans-Bold-31"/>
     <use xlink:href="#DejaVuSans-Bold-35" transform="translate(69.580078 0)"/>
     <use xlink:href="#DejaVuSans-Bold-33" transform="translate(139.160156 0)"/>
    </g>
   </g>
   <g id="text_41">
    <!-- 24 -->
    <g style="fill: #262626" transform="translate(627.771208 233.85525) scale(0.12 -0.12)">
     <defs>
      <path id="DejaVuSans-Bold-34" d="M 2356 3675 
L 1038 1722 
L 2356 1722 
L 2356 3675 
z
M 2156 4666 
L 3494 4666 
L 3494 1722 
L 4159 1722 
L 4159 850 
L 3494 850 
L 3494 0 
L 2356 0 
L 2356 850 
L 288 850 
L 288 1881 
L 2156 4666 
z
" transform="scale(0.015625)"/>
     </defs>
     <use xlink:href="#DejaVuSans-Bold-32"/>
     <use xlink:href="#DejaVuSans-Bold-34" transform="translate(69.580078 0)"/>
    </g>
   </g>
   <g id="text_42">
    <!-- 6578 -->
    <g style="fill: #ffffff" transform="translate(460.391688 256.03125) scale(0.12 -0.12)">
     <use xlink:href="#DejaVuSans-Bold-36"/>
     <use xlink:href="#DejaVuSans-Bold-35" transform="translate(69.580078 0)"/>
     <use xlink:href="#DejaVuSans-Bold-37" transform="translate(139.160156 0)"/>
     <use xlink:href="#DejaVuSans-Bold-38" transform="translate(208.740234 0)"/>
    </g>
   </g>
   <g id="text_43">
    <!-- 1194 -->
    <g style="fill: #262626" transform="translate(619.421833 256.03125) scale(0.12 -0.12)">
     <use xlink:href="#DejaVuSans-Bold-31"/>
     <use xlink:href="#DejaVuSans-Bold-31" transform="translate(69.580078 0)"/>
     <use xlink:href="#DejaVuSans-Bold-39" transform="translate(139.160156 0)"/>
     <use xlink:href="#DejaVuSans-Bold-34" transform="translate(208.740234 0)"/>
    </g>
   </g>
   <g id="text_44">
    <!-- 35 -->
    <g style="fill: #ffffff" transform="translate(468.741063 278.20725) scale(0.12 -0.12)">
     <use xlink:href="#DejaVuSans-Bold-33"/>
     <use xlink:href="#DejaVuSans-Bold-35" transform="translate(69.580078 0)"/>
    </g>
   </g>
   <g id="text_45">
    <!-- 9 -->
    <g style="fill: #262626" transform="translate(631.945896 278.20725) scale(0.12 -0.12)">
     <use xlink:href="#DejaVuSans-Bold-39"/>
    </g>
   </g>
   <g id="text_46">
    <!-- 14842 -->
    <g style="fill: #ffffff" transform="translate(456.217 300.38325) scale(0.12 -0.12)">
     <use xlink:href="#DejaVuSans-Bold-31"/>
     <use xlink:href="#DejaVuSans-Bold-34" transform="translate(69.580078 0)"/>
     <use xlink:href="#DejaVuSans-Bold-38" transform="translate(139.160156 0)"/>
     <use xlink:href="#DejaVuSans-Bold-34" transform="translate(208.740234 0)"/>
     <use xlink:href="#DejaVuSans-Bold-32" transform="translate(278.320312 0)"/>
    </g>
   </g>
   <g id="text_47">
    <!-- 10574 -->
    <g style="fill: #262626" transform="translate(615.247146 300.38325) scale(0.12 -0.12)">
     <use xlink:href="#DejaVuSans-Bold-31"/>
     <use xlink:href="#DejaVuSans-Bold-30" transform="translate(69.580078 0)"/>
     <use xlink:href="#DejaVuSans-Bold-35" transform="translate(139.160156 0)"/>
     <use xlink:href="#DejaVuSans-Bold-37" transform="translate(208.740234 0)"/>
     <use xlink:href="#DejaVuSans-Bold-34" transform="translate(278.320312 0)"/>
    </g>
   </g>
   <g id="text_48">
    <!-- 60451 -->
    <g style="fill: #ffffff" transform="translate(456.217 322.55925) scale(0.12 -0.12)">
     <use xlink:href="#DejaVuSans-Bold-36"/>
     <use xlink:href="#DejaVuSans-Bold-30" transform="translate(69.580078 0)"/>
     <use xlink:href="#DejaVuSans-Bold-34" transform="translate(139.160156 0)"/>
     <use xlink:href="#DejaVuSans-Bold-35" transform="translate(208.740234 0)"/>
     <use xlink:href="#DejaVuSans-Bold-31" transform="translate(278.320312 0)"/>
    </g>
   </g>
   <g id="text_49">
    <!-- 32447 -->
    <g style="fill: #262626" transform="translate(615.247146 322.55925) scale(0.12 -0.12)">
     <use xlink:href="#DejaVuSans-Bold-33"/>
     <use xlink:href="#DejaVuSans-Bold-32" transform="translate(69.580078 0)"/>
     <use xlink:href="#DejaVuSans-Bold-34" transform="translate(139.160156 0)"/>
     <use xlink:href="#DejaVuSans-Bold-34" transform="translate(208.740234 0)"/>
     <use xlink:href="#DejaVuSans-Bold-37" transform="translate(278.320312 0)"/>
    </g>
   </g>
   <g id="text_50">
    <!-- 18 -->
    <g style="fill: #ffffff" transform="translate(468.741063 344.73525) scale(0.12 -0.12)">
     <use xlink:href="#DejaVuSans-Bold-31"/>
     <use xlink:href="#DejaVuSans-Bold-38" transform="translate(69.580078 0)"/>
    </g>
   </g>
   <g id="text_51">
    <!-- 2 -->
    <g style="fill: #262626" transform="translate(631.945896 344.73525) scale(0.12 -0.12)">
     <use xlink:href="#DejaVuSans-Bold-32"/>
    </g>
   </g>
   <g id="text_52">
    <!-- 97 -->
    <g style="fill: #ffffff" transform="translate(468.741063 366.91125) scale(0.12 -0.12)">
     <use xlink:href="#DejaVuSans-Bold-39"/>
     <use xlink:href="#DejaVuSans-Bold-37" transform="translate(69.580078 0)"/>
    </g>
   </g>
   <g id="text_53">
    <!-- 37 -->
    <g style="fill: #262626" transform="translate(627.771208 366.91125) scale(0.12 -0.12)">
     <use xlink:href="#DejaVuSans-Bold-33"/>
     <use xlink:href="#DejaVuSans-Bold-37" transform="translate(69.580078 0)"/>
    </g>
   </g>
   <g id="text_54">
    <!-- 510 -->
    <g style="fill: #ffffff" transform="translate(464.566375 389.08725) scale(0.12 -0.12)">
     <use xlink:href="#DejaVuSans-Bold-35"/>
     <use xlink:href="#DejaVuSans-Bold-31" transform="translate(69.580078 0)"/>
     <use xlink:href="#DejaVuSans-Bold-30" transform="translate(139.160156 0)"/>
    </g>
   </g>
   <g id="text_55">
    <!-- 172 -->
    <g style="fill: #262626" transform="translate(623.596521 389.08725) scale(0.12 -0.12)">
     <use xlink:href="#DejaVuSans-Bold-31"/>
     <use xlink:href="#DejaVuSans-Bold-37" transform="translate(69.580078 0)"/>
     <use xlink:href="#DejaVuSans-Bold-32" transform="translate(139.160156 0)"/>
    </g>
   </g>
   <g id="text_56">
    <!-- 34 -->
    <g style="fill: #ffffff" transform="translate(468.741063 411.26325) scale(0.12 -0.12)">
     <use xlink:href="#DejaVuSans-Bold-33"/>
     <use xlink:href="#DejaVuSans-Bold-34" transform="translate(69.580078 0)"/>
    </g>
   </g>
   <g id="text_57">
    <!-- 6 -->
    <g style="fill: #262626" transform="translate(631.945896 411.26325) scale(0.12 -0.12)">
     <use xlink:href="#DejaVuSans-Bold-36"/>
    </g>
   </g>
   <g id="text_58">
    <!-- 48 -->
    <g style="fill: #ffffff" transform="translate(468.741063 433.43925) scale(0.12 -0.12)">
     <use xlink:href="#DejaVuSans-Bold-34"/>
     <use xlink:href="#DejaVuSans-Bold-38" transform="translate(69.580078 0)"/>
    </g>
   </g>
   <g id="text_59">
    <!-- 2 -->
    <g style="fill: #262626" transform="translate(631.945896 433.43925) scale(0.12 -0.12)">
     <use xlink:href="#DejaVuSans-Bold-32"/>
    </g>
   </g>
   <g id="text_60">
    <!-- 41 -->
    <g style="fill: #ffffff" transform="translate(468.741063 455.61525) scale(0.12 -0.12)">
     <use xlink:href="#DejaVuSans-Bold-34"/>
     <use xlink:href="#DejaVuSans-Bold-31" transform="translate(69.580078 0)"/>
    </g>
   </g>
   <g id="text_61">
    <!-- 9 -->
    <g style="fill: #262626" transform="translate(631.945896 455.61525) scale(0.12 -0.12)">
     <use xlink:href="#DejaVuSans-Bold-39"/>
    </g>
   </g>
   <g id="text_62">
    <!-- 9 -->
    <g style="fill: #ffffff" transform="translate(472.91575 477.79125) scale(0.12 -0.12)">
     <use xlink:href="#DejaVuSans-Bold-39"/>
    </g>
   </g>
   <g id="text_63">
    <!-- 1 -->
    <g style="fill: #262626" transform="translate(631.945896 477.79125) scale(0.12 -0.12)">
     <use xlink:href="#DejaVuSans-Bold-31"/>
    </g>
   </g>
   <g id="text_64">
    <!-- 18 -->
    <g style="fill: #ffffff" transform="translate(468.741063 499.96725) scale(0.12 -0.12)">
     <use xlink:href="#DejaVuSans-Bold-31"/>
     <use xlink:href="#DejaVuSans-Bold-38" transform="translate(69.580078 0)"/>
    </g>
   </g>
   <g id="text_65">
    <!-- 1 -->
    <g style="fill: #262626" transform="translate(631.945896 499.96725) scale(0.12 -0.12)">
     <use xlink:href="#DejaVuSans-Bold-31"/>
    </g>
   </g>
   <g id="text_66">
    <!-- 47 -->
    <g style="fill: #ffffff" transform="translate(468.741063 522.14325) scale(0.12 -0.12)">
     <use xlink:href="#DejaVuSans-Bold-34"/>
     <use xlink:href="#DejaVuSans-Bold-37" transform="translate(69.580078 0)"/>
    </g>
   </g>
   <g id="text_67">
    <!-- 3 -->
    <g style="fill: #262626" transform="translate(631.945896 522.14325) scale(0.12 -0.12)">
     <use xlink:href="#DejaVuSans-Bold-33"/>
    </g>
   </g>
   <g id="text_68">
    <!-- 10 -->
    <g style="fill: #ffffff" transform="translate(468.741063 544.31925) scale(0.12 -0.12)">
     <use xlink:href="#DejaVuSans-Bold-31"/>
     <use xlink:href="#DejaVuSans-Bold-30" transform="translate(69.580078 0)"/>
    </g>
   </g>
   <g id="text_69">
    <!-- 0 -->
    <g style="fill: #262626" transform="translate(631.945896 544.31925) scale(0.12 -0.12)">
     <use xlink:href="#DejaVuSans-Bold-30"/>
    </g>
   </g>
   <g id="text_70">
    <!-- 4 -->
    <g style="fill: #ffffff" transform="translate(472.91575 566.49525) scale(0.12 -0.12)">
     <use xlink:href="#DejaVuSans-Bold-34"/>
    </g>
   </g>
   <g id="text_71">
    <!-- 3 -->
    <g style="fill: #262626" transform="translate(631.945896 566.49525) scale(0.12 -0.12)">
     <use xlink:href="#DejaVuSans-Bold-33"/>
    </g>
   </g>
   <g id="text_72">
    <!-- 0 -->
    <g style="fill: #262626" transform="translate(472.91575 588.67125) scale(0.12 -0.12)">
     <use xlink:href="#DejaVuSans-Bold-30"/>
    </g>
   </g>
   <g id="text_73">
    <!-- 0 -->
    <g style="fill: #262626" transform="translate(631.945896 588.67125) scale(0.12 -0.12)">
     <use xlink:href="#DejaVuSans-Bold-30"/>
    </g>
   </g>
   <g id="text_74">
    <!-- 11 -->
    <g style="fill: #ffffff" transform="translate(468.741063 610.84725) scale(0.12 -0.12)">
     <use xlink:href="#DejaVuSans-Bold-31"/>
     <use xlink:href="#DejaVuSans-Bold-31" transform="translate(69.580078 0)"/>
    </g>
   </g>
   <g id="text_75">
    <!-- 3 -->
    <g style="fill: #262626" transform="translate(631.945896 610.84725) scale(0.12 -0.12)">
     <use xlink:href="#DejaVuSans-Bold-33"/>
    </g>
   </g>
   <g id="text_76">
    <!-- 8 -->
    <g style="fill: #ffffff" transform="translate(472.91575 633.02325) scale(0.12 -0.12)">
     <use xlink:href="#DejaVuSans-Bold-38"/>
    </g>
   </g>
   <g id="text_77">
    <!-- 3 -->
    <g style="fill: #262626" transform="translate(631.945896 633.02325) scale(0.12 -0.12)">
     <use xlink:href="#DejaVuSans-Bold-33"/>
    </g>
   </g>
  </g>
 </g>
 <defs>
  <clipPath id="p300e48a3c7">
   <rect x="397.575365" y="86.4" width="318.060292" height="554.4"/>
  </clipPath>
 </defs>
</svg>
